<?xml version="1.0" encoding="utf-8" standalone="no"?>
<!DOCTYPE svg PUBLIC "-//W3C//DTD SVG 1.1//EN"
  "http://www.w3.org/Graphics/SVG/1.1/DTD/svg11.dtd">
<svg xmlns:xlink="http://www.w3.org/1999/xlink" width="460.8pt" height="345.6pt" viewBox="0 0 460.8 345.6" xmlns="http://www.w3.org/2000/svg" version="1.1">
 <metadata>
  <rdf:RDF xmlns:dc="http://purl.org/dc/elements/1.1/" xmlns:cc="http://creativecommons.org/ns#" xmlns:rdf="http://www.w3.org/1999/02/22-rdf-syntax-ns#">
   <cc:Work>
    <dc:type rdf:resource="http://purl.org/dc/dcmitype/StillImage"/>
    <dc:date>2022-09-20T15:19:30.033478</dc:date>
    <dc:format>image/svg+xml</dc:format>
    <dc:creator>
     <cc:Agent>
      <dc:title>Matplotlib v3.5.3, https://matplotlib.org/</dc:title>
     </cc:Agent>
    </dc:creator>
   </cc:Work>
  </rdf:RDF>
 </metadata>
 <defs>
  <style type="text/css">*{stroke-linejoin: round; stroke-linecap: butt}</style>
 </defs>
 <g id="figure_1">
  <g id="patch_1">
   <path d="M 0 345.6 
L 460.8 345.6 
L 460.8 0 
L 0 0 
z
" style="fill: #ffffff"/>
  </g>
  <g id="axes_1">
   <g id="patch_2">
    <path d="M 57.6 307.584 
L 414.72 307.584 
L 414.72 41.472 
L 57.6 41.472 
z
" style="fill: #ffffff"/>
   </g>
   <g id="matplotlib.axis_1">
    <g id="xtick_1">
     <g id="line2d_1">
      <defs>
       <path id="m437cdd6b7c" d="M 0 0 
L 0 3.5 
" style="stroke: #000000; stroke-width: 0.8"/>
      </defs>
      <g>
       <use xlink:href="#m437cdd6b7c" x="73.832727" y="307.584" style="stroke: #000000; stroke-width: 0.8"/>
      </g>
     </g>
     <g id="text_1">
      <!-- 0 -->
      <g transform="translate(70.651477 322.182437)scale(0.1 -0.1)">
       <defs>
        <path id="DejaVuSans-30" d="M 2034 4250 
Q 1547 4250 1301 3770 
Q 1056 3291 1056 2328 
Q 1056 1369 1301 889 
Q 1547 409 2034 409 
Q 2525 409 2770 889 
Q 3016 1369 3016 2328 
Q 3016 3291 2770 3770 
Q 2525 4250 2034 4250 
z
M 2034 4750 
Q 2819 4750 3233 4129 
Q 3647 3509 3647 2328 
Q 3647 1150 3233 529 
Q 2819 -91 2034 -91 
Q 1250 -91 836 529 
Q 422 1150 422 2328 
Q 422 3509 836 4129 
Q 1250 4750 2034 4750 
z
" transform="scale(0.015625)"/>
       </defs>
       <use xlink:href="#DejaVuSans-30"/>
      </g>
     </g>
    </g>
    <g id="xtick_2">
     <g id="line2d_2">
      <g>
       <use xlink:href="#m437cdd6b7c" x="137.365906" y="307.584" style="stroke: #000000; stroke-width: 0.8"/>
      </g>
     </g>
     <g id="text_2">
      <!-- 100 -->
      <g transform="translate(127.822156 322.182437)scale(0.1 -0.1)">
       <defs>
        <path id="DejaVuSans-31" d="M 794 531 
L 1825 531 
L 1825 4091 
L 703 3866 
L 703 4441 
L 1819 4666 
L 2450 4666 
L 2450 531 
L 3481 531 
L 3481 0 
L 794 0 
L 794 531 
z
" transform="scale(0.015625)"/>
       </defs>
       <use xlink:href="#DejaVuSans-31"/>
       <use xlink:href="#DejaVuSans-30" x="63.623047"/>
       <use xlink:href="#DejaVuSans-30" x="127.246094"/>
      </g>
     </g>
    </g>
    <g id="xtick_3">
     <g id="line2d_3">
      <g>
       <use xlink:href="#m437cdd6b7c" x="200.899086" y="307.584" style="stroke: #000000; stroke-width: 0.8"/>
      </g>
     </g>
     <g id="text_3">
      <!-- 200 -->
      <g transform="translate(191.355336 322.182437)scale(0.1 -0.1)">
       <defs>
        <path id="DejaVuSans-32" d="M 1228 531 
L 3431 531 
L 3431 0 
L 469 0 
L 469 531 
Q 828 903 1448 1529 
Q 2069 2156 2228 2338 
Q 2531 2678 2651 2914 
Q 2772 3150 2772 3378 
Q 2772 3750 2511 3984 
Q 2250 4219 1831 4219 
Q 1534 4219 1204 4116 
Q 875 4013 500 3803 
L 500 4441 
Q 881 4594 1212 4672 
Q 1544 4750 1819 4750 
Q 2544 4750 2975 4387 
Q 3406 4025 3406 3419 
Q 3406 3131 3298 2873 
Q 3191 2616 2906 2266 
Q 2828 2175 2409 1742 
Q 1991 1309 1228 531 
z
" transform="scale(0.015625)"/>
       </defs>
       <use xlink:href="#DejaVuSans-32"/>
       <use xlink:href="#DejaVuSans-30" x="63.623047"/>
       <use xlink:href="#DejaVuSans-30" x="127.246094"/>
      </g>
     </g>
    </g>
    <g id="xtick_4">
     <g id="line2d_4">
      <g>
       <use xlink:href="#m437cdd6b7c" x="264.432265" y="307.584" style="stroke: #000000; stroke-width: 0.8"/>
      </g>
     </g>
     <g id="text_4">
      <!-- 300 -->
      <g transform="translate(254.888515 322.182437)scale(0.1 -0.1)">
       <defs>
        <path id="DejaVuSans-33" d="M 2597 2516 
Q 3050 2419 3304 2112 
Q 3559 1806 3559 1356 
Q 3559 666 3084 287 
Q 2609 -91 1734 -91 
Q 1441 -91 1130 -33 
Q 819 25 488 141 
L 488 750 
Q 750 597 1062 519 
Q 1375 441 1716 441 
Q 2309 441 2620 675 
Q 2931 909 2931 1356 
Q 2931 1769 2642 2001 
Q 2353 2234 1838 2234 
L 1294 2234 
L 1294 2753 
L 1863 2753 
Q 2328 2753 2575 2939 
Q 2822 3125 2822 3475 
Q 2822 3834 2567 4026 
Q 2313 4219 1838 4219 
Q 1578 4219 1281 4162 
Q 984 4106 628 3988 
L 628 4550 
Q 988 4650 1302 4700 
Q 1616 4750 1894 4750 
Q 2613 4750 3031 4423 
Q 3450 4097 3450 3541 
Q 3450 3153 3228 2886 
Q 3006 2619 2597 2516 
z
" transform="scale(0.015625)"/>
       </defs>
       <use xlink:href="#DejaVuSans-33"/>
       <use xlink:href="#DejaVuSans-30" x="63.623047"/>
       <use xlink:href="#DejaVuSans-30" x="127.246094"/>
      </g>
     </g>
    </g>
    <g id="xtick_5">
     <g id="line2d_5">
      <g>
       <use xlink:href="#m437cdd6b7c" x="327.965444" y="307.584" style="stroke: #000000; stroke-width: 0.8"/>
      </g>
     </g>
     <g id="text_5">
      <!-- 400 -->
      <g transform="translate(318.421694 322.182437)scale(0.1 -0.1)">
       <defs>
        <path id="DejaVuSans-34" d="M 2419 4116 
L 825 1625 
L 2419 1625 
L 2419 4116 
z
M 2253 4666 
L 3047 4666 
L 3047 1625 
L 3713 1625 
L 3713 1100 
L 3047 1100 
L 3047 0 
L 2419 0 
L 2419 1100 
L 313 1100 
L 313 1709 
L 2253 4666 
z
" transform="scale(0.015625)"/>
       </defs>
       <use xlink:href="#DejaVuSans-34"/>
       <use xlink:href="#DejaVuSans-30" x="63.623047"/>
       <use xlink:href="#DejaVuSans-30" x="127.246094"/>
      </g>
     </g>
    </g>
    <g id="xtick_6">
     <g id="line2d_6">
      <g>
       <use xlink:href="#m437cdd6b7c" x="391.498623" y="307.584" style="stroke: #000000; stroke-width: 0.8"/>
      </g>
     </g>
     <g id="text_6">
      <!-- 500 -->
      <g transform="translate(381.954873 322.182437)scale(0.1 -0.1)">
       <defs>
        <path id="DejaVuSans-35" d="M 691 4666 
L 3169 4666 
L 3169 4134 
L 1269 4134 
L 1269 2991 
Q 1406 3038 1543 3061 
Q 1681 3084 1819 3084 
Q 2600 3084 3056 2656 
Q 3513 2228 3513 1497 
Q 3513 744 3044 326 
Q 2575 -91 1722 -91 
Q 1428 -91 1123 -41 
Q 819 9 494 109 
L 494 744 
Q 775 591 1075 516 
Q 1375 441 1709 441 
Q 2250 441 2565 725 
Q 2881 1009 2881 1497 
Q 2881 1984 2565 2268 
Q 2250 2553 1709 2553 
Q 1456 2553 1204 2497 
Q 953 2441 691 2322 
L 691 4666 
z
" transform="scale(0.015625)"/>
       </defs>
       <use xlink:href="#DejaVuSans-35"/>
       <use xlink:href="#DejaVuSans-30" x="63.623047"/>
       <use xlink:href="#DejaVuSans-30" x="127.246094"/>
      </g>
     </g>
    </g>
   </g>
   <g id="matplotlib.axis_2">
    <g id="ytick_1">
     <g id="line2d_7">
      <defs>
       <path id="ma3efd19bda" d="M 0 0 
L -3.5 0 
" style="stroke: #000000; stroke-width: 0.8"/>
      </defs>
      <g>
       <use xlink:href="#ma3efd19bda" x="57.6" y="305.051077" style="stroke: #000000; stroke-width: 0.8"/>
      </g>
     </g>
     <g id="text_7">
      <!-- 31750 -->
      <g transform="translate(18.7875 308.850296)scale(0.1 -0.1)">
       <defs>
        <path id="DejaVuSans-37" d="M 525 4666 
L 3525 4666 
L 3525 4397 
L 1831 0 
L 1172 0 
L 2766 4134 
L 525 4134 
L 525 4666 
z
" transform="scale(0.015625)"/>
       </defs>
       <use xlink:href="#DejaVuSans-33"/>
       <use xlink:href="#DejaVuSans-31" x="63.623047"/>
       <use xlink:href="#DejaVuSans-37" x="127.246094"/>
       <use xlink:href="#DejaVuSans-35" x="190.869141"/>
       <use xlink:href="#DejaVuSans-30" x="254.492188"/>
      </g>
     </g>
    </g>
    <g id="ytick_2">
     <g id="line2d_8">
      <g>
       <use xlink:href="#ma3efd19bda" x="57.6" y="272.743385" style="stroke: #000000; stroke-width: 0.8"/>
      </g>
     </g>
     <g id="text_8">
      <!-- 32000 -->
      <g transform="translate(18.7875 276.542603)scale(0.1 -0.1)">
       <use xlink:href="#DejaVuSans-33"/>
       <use xlink:href="#DejaVuSans-32" x="63.623047"/>
       <use xlink:href="#DejaVuSans-30" x="127.246094"/>
       <use xlink:href="#DejaVuSans-30" x="190.869141"/>
       <use xlink:href="#DejaVuSans-30" x="254.492188"/>
      </g>
     </g>
    </g>
    <g id="ytick_3">
     <g id="line2d_9">
      <g>
       <use xlink:href="#ma3efd19bda" x="57.6" y="240.435692" style="stroke: #000000; stroke-width: 0.8"/>
      </g>
     </g>
     <g id="text_9">
      <!-- 32250 -->
      <g transform="translate(18.7875 244.234911)scale(0.1 -0.1)">
       <use xlink:href="#DejaVuSans-33"/>
       <use xlink:href="#DejaVuSans-32" x="63.623047"/>
       <use xlink:href="#DejaVuSans-32" x="127.246094"/>
       <use xlink:href="#DejaVuSans-35" x="190.869141"/>
       <use xlink:href="#DejaVuSans-30" x="254.492188"/>
      </g>
     </g>
    </g>
    <g id="ytick_4">
     <g id="line2d_10">
      <g>
       <use xlink:href="#ma3efd19bda" x="57.6" y="208.128" style="stroke: #000000; stroke-width: 0.8"/>
      </g>
     </g>
     <g id="text_10">
      <!-- 32500 -->
      <g transform="translate(18.7875 211.927219)scale(0.1 -0.1)">
       <use xlink:href="#DejaVuSans-33"/>
       <use xlink:href="#DejaVuSans-32" x="63.623047"/>
       <use xlink:href="#DejaVuSans-35" x="127.246094"/>
       <use xlink:href="#DejaVuSans-30" x="190.869141"/>
       <use xlink:href="#DejaVuSans-30" x="254.492188"/>
      </g>
     </g>
    </g>
    <g id="ytick_5">
     <g id="line2d_11">
      <g>
       <use xlink:href="#ma3efd19bda" x="57.6" y="175.820308" style="stroke: #000000; stroke-width: 0.8"/>
      </g>
     </g>
     <g id="text_11">
      <!-- 32750 -->
      <g transform="translate(18.7875 179.619526)scale(0.1 -0.1)">
       <use xlink:href="#DejaVuSans-33"/>
       <use xlink:href="#DejaVuSans-32" x="63.623047"/>
       <use xlink:href="#DejaVuSans-37" x="127.246094"/>
       <use xlink:href="#DejaVuSans-35" x="190.869141"/>
       <use xlink:href="#DejaVuSans-30" x="254.492188"/>
      </g>
     </g>
    </g>
    <g id="ytick_6">
     <g id="line2d_12">
      <g>
       <use xlink:href="#ma3efd19bda" x="57.6" y="143.512615" style="stroke: #000000; stroke-width: 0.8"/>
      </g>
     </g>
     <g id="text_12">
      <!-- 33000 -->
      <g transform="translate(18.7875 147.311834)scale(0.1 -0.1)">
       <use xlink:href="#DejaVuSans-33"/>
       <use xlink:href="#DejaVuSans-33" x="63.623047"/>
       <use xlink:href="#DejaVuSans-30" x="127.246094"/>
       <use xlink:href="#DejaVuSans-30" x="190.869141"/>
       <use xlink:href="#DejaVuSans-30" x="254.492188"/>
      </g>
     </g>
    </g>
    <g id="ytick_7">
     <g id="line2d_13">
      <g>
       <use xlink:href="#ma3efd19bda" x="57.6" y="111.204923" style="stroke: #000000; stroke-width: 0.8"/>
      </g>
     </g>
     <g id="text_13">
      <!-- 33250 -->
      <g transform="translate(18.7875 115.004142)scale(0.1 -0.1)">
       <use xlink:href="#DejaVuSans-33"/>
       <use xlink:href="#DejaVuSans-33" x="63.623047"/>
       <use xlink:href="#DejaVuSans-32" x="127.246094"/>
       <use xlink:href="#DejaVuSans-35" x="190.869141"/>
       <use xlink:href="#DejaVuSans-30" x="254.492188"/>
      </g>
     </g>
    </g>
    <g id="ytick_8">
     <g id="line2d_14">
      <g>
       <use xlink:href="#ma3efd19bda" x="57.6" y="78.897231" style="stroke: #000000; stroke-width: 0.8"/>
      </g>
     </g>
     <g id="text_14">
      <!-- 33500 -->
      <g transform="translate(18.7875 82.69645)scale(0.1 -0.1)">
       <use xlink:href="#DejaVuSans-33"/>
       <use xlink:href="#DejaVuSans-33" x="63.623047"/>
       <use xlink:href="#DejaVuSans-35" x="127.246094"/>
       <use xlink:href="#DejaVuSans-30" x="190.869141"/>
       <use xlink:href="#DejaVuSans-30" x="254.492188"/>
      </g>
     </g>
    </g>
    <g id="ytick_9">
     <g id="line2d_15">
      <g>
       <use xlink:href="#ma3efd19bda" x="57.6" y="46.589538" style="stroke: #000000; stroke-width: 0.8"/>
      </g>
     </g>
     <g id="text_15">
      <!-- 33750 -->
      <g transform="translate(18.7875 50.388757)scale(0.1 -0.1)">
       <use xlink:href="#DejaVuSans-33"/>
       <use xlink:href="#DejaVuSans-33" x="63.623047"/>
       <use xlink:href="#DejaVuSans-37" x="127.246094"/>
       <use xlink:href="#DejaVuSans-35" x="190.869141"/>
       <use xlink:href="#DejaVuSans-30" x="254.492188"/>
      </g>
     </g>
    </g>
   </g>
   <g id="line2d_16">
    <path d="M 73.832727 138.343385 
L 74.468059 185.900308 
L 75.103391 96.989538 
L 75.738723 200.374154 
L 76.374054 53.568 
L 77.009386 196.238769 
L 77.644718 74.244923 
L 78.28005 200.374154 
L 78.915382 70.109538 
L 79.550713 187.968 
L 80.186045 68.041846 
L 80.821377 190.035692 
L 81.456709 74.244923 
L 82.092041 183.832615 
L 82.727372 82.515692 
L 83.362704 181.764923 
L 83.998036 78.380308 
L 84.633368 185.900308 
L 85.2687 80.448 
L 85.904031 183.832615 
L 86.539363 53.568 
L 87.174695 177.629538 
L 87.810027 76.312615 
L 88.445358 177.629538 
L 89.08069 76.312615 
L 89.716022 163.155692 
L 90.351354 96.989538 
L 90.986686 169.358769 
L 91.622017 101.124923 
L 92.257349 173.494154 
L 92.892681 88.718769 
L 93.528013 169.358769 
L 94.163345 99.057231 
L 94.798676 159.020308 
L 95.434008 80.448 
L 96.06934 156.952615 
L 96.704672 109.395692 
L 97.340004 161.088 
L 97.975335 111.463385 
L 98.610667 163.155692 
L 99.245999 105.260308 
L 99.881331 148.681846 
L 100.516663 105.260308 
L 101.151994 150.749538 
L 101.787326 125.937231 
L 102.422658 165.223385 
L 103.05799 117.666462 
L 103.693321 156.952615 
L 104.328653 136.275692 
L 104.963985 177.629538 
L 105.599317 130.072615 
L 106.234649 165.223385 
L 106.86998 132.140308 
L 107.505312 161.088 
L 108.140644 128.004923 
L 108.775976 154.884923 
L 109.411308 136.275692 
L 110.046639 159.020308 
L 110.681971 136.275692 
L 111.317303 173.494154 
L 111.952635 142.478769 
L 112.587967 152.817231 
L 113.223298 125.937231 
L 113.85863 161.088 
L 114.493962 150.749538 
L 115.129294 173.494154 
L 115.764626 156.952615 
L 116.399957 173.494154 
L 117.035289 163.155692 
L 117.670621 171.426462 
L 118.305953 148.681846 
L 118.941284 159.020308 
L 119.576616 159.020308 
L 120.211948 165.223385 
L 120.84728 163.155692 
L 121.482612 173.494154 
L 122.117943 163.155692 
L 122.753275 163.155692 
L 123.388607 175.561846 
L 124.023939 167.291077 
L 124.659271 161.088 
L 125.294602 173.494154 
L 125.929934 165.223385 
L 126.565266 173.494154 
L 127.200598 177.629538 
L 127.83593 175.561846 
L 130.377257 183.832615 
L 131.012589 175.561846 
L 131.64792 183.832615 
L 132.283252 196.238769 
L 132.918584 194.171077 
L 133.553916 198.306462 
L 134.189247 185.900308 
L 134.824579 183.832615 
L 135.459911 200.374154 
L 136.095243 198.306462 
L 136.730575 190.035692 
L 137.365906 190.035692 
L 138.001238 179.697231 
L 138.63657 198.306462 
L 139.271902 204.509538 
L 139.907234 200.374154 
L 140.542565 216.915692 
L 141.177897 206.577231 
L 141.813229 206.577231 
L 142.448561 194.171077 
L 143.083893 225.186462 
L 143.719224 200.374154 
L 144.354556 218.983385 
L 144.989888 216.915692 
L 145.62522 235.524923 
L 146.260552 208.644923 
L 146.895883 233.457231 
L 147.531215 204.509538 
L 148.166547 223.118769 
L 148.801879 206.577231 
L 149.43721 241.728 
L 150.072542 210.712615 
L 150.707874 247.931077 
L 151.343206 192.103385 
L 151.978538 249.998769 
L 152.613869 202.441846 
L 153.249201 247.931077 
L 153.884533 183.832615 
L 154.519865 252.066462 
L 155.155197 196.238769 
L 155.790528 249.998769 
L 156.42586 190.035692 
L 157.061192 262.404923 
L 157.696524 192.103385 
L 158.331856 278.946462 
L 158.967187 185.900308 
L 159.602519 272.743385 
L 160.237851 171.426462 
L 160.873183 274.811077 
L 161.508514 187.968 
L 162.143846 289.284923 
L 162.779178 165.223385 
L 163.41451 293.420308 
L 164.049842 154.884923 
L 164.685173 287.217231 
L 165.320505 161.088 
L 165.955837 272.743385 
L 166.591169 152.817231 
L 167.226501 278.946462 
L 167.861832 159.020308 
L 168.497164 266.540308 
L 169.132496 148.681846 
L 169.767828 278.946462 
L 170.40316 138.343385 
L 171.038491 276.878769 
L 171.673823 128.004923 
L 172.309155 295.488 
L 172.944487 142.478769 
L 173.579819 287.217231 
L 174.21515 128.004923 
L 174.850482 285.149538 
L 175.485814 121.801846 
L 176.121146 285.149538 
L 176.756477 136.275692 
L 177.391809 260.337231 
L 178.027141 132.140308 
L 178.662473 262.404923 
L 179.297805 119.734154 
L 179.933136 281.014154 
L 180.568468 109.395692 
L 181.2038 266.540308 
L 181.839132 123.869538 
L 182.474464 287.217231 
L 183.109795 99.057231 
L 183.745127 262.404923 
L 184.380459 117.666462 
L 185.015791 264.472615 
L 185.651123 109.395692 
L 186.286454 249.998769 
L 186.921786 113.531077 
L 187.557118 249.998769 
L 188.19245 99.057231 
L 188.827782 272.743385 
L 189.463113 94.921846 
L 190.098445 254.134154 
L 190.733777 101.124923 
L 191.369109 272.743385 
L 192.00444 94.921846 
L 192.639772 262.404923 
L 193.275104 101.124923 
L 193.910436 241.728 
L 194.545768 86.651077 
L 195.181099 245.863385 
L 195.816431 68.041846 
L 196.451763 239.660308 
L 197.087095 84.583385 
L 197.722427 229.321846 
L 198.357758 86.651077 
L 198.99309 243.795692 
L 199.628422 65.974154 
L 200.263754 227.254154 
L 200.899086 80.448 
L 201.534417 223.118769 
L 202.169749 76.312615 
L 202.805081 212.780308 
L 203.440413 72.177231 
L 204.075745 218.983385 
L 204.711076 82.515692 
L 205.346408 221.051077 
L 205.98174 74.244923 
L 206.617072 212.780308 
L 207.252403 61.838769 
L 207.887735 204.509538 
L 208.523067 88.718769 
L 209.158399 202.441846 
L 209.793731 105.260308 
L 210.429062 198.306462 
L 211.064394 86.651077 
L 211.699726 187.968 
L 212.335058 96.989538 
L 212.97039 190.035692 
L 213.605721 74.244923 
L 214.241053 187.968 
L 214.876385 94.921846 
L 215.511717 175.561846 
L 216.147049 96.989538 
L 216.78238 183.832615 
L 217.417712 96.989538 
L 218.053044 171.426462 
L 218.688376 99.057231 
L 219.323708 173.494154 
L 219.959039 96.989538 
L 220.594371 163.155692 
L 221.229703 86.651077 
L 221.865035 156.952615 
L 222.500366 107.328 
L 223.135698 169.358769 
L 223.77103 107.328 
L 224.406362 167.291077 
L 225.041694 96.989538 
L 225.677025 161.088 
L 226.312357 92.854154 
L 226.947689 163.155692 
L 227.583021 99.057231 
L 228.218353 148.681846 
L 228.853684 119.734154 
L 229.489016 146.614154 
L 230.124348 128.004923 
L 230.75968 165.223385 
L 231.395012 111.463385 
L 232.030343 142.478769 
L 232.665675 117.666462 
L 233.301007 138.343385 
L 233.936339 121.801846 
L 234.571671 152.817231 
L 235.207002 138.343385 
L 235.842334 134.208 
L 236.477666 136.275692 
L 237.112998 156.952615 
L 237.748329 142.478769 
L 238.383661 136.275692 
L 239.018993 117.666462 
L 239.654325 138.343385 
L 240.289657 128.004923 
L 240.924988 132.140308 
L 241.56032 156.952615 
L 242.195652 130.072615 
L 242.830984 150.749538 
L 243.466316 142.478769 
L 244.101647 167.291077 
L 244.736979 130.072615 
L 245.372311 163.155692 
L 246.007643 119.734154 
L 246.642975 167.291077 
L 247.278306 119.734154 
L 247.913638 161.088 
L 248.54897 121.801846 
L 249.184302 181.764923 
L 249.819634 113.531077 
L 250.454965 177.629538 
L 251.090297 128.004923 
L 251.725629 179.697231 
L 252.360961 109.395692 
L 252.996292 192.103385 
L 253.631624 134.208 
L 254.266956 185.900308 
L 254.902288 121.801846 
L 255.53762 204.509538 
L 256.172951 128.004923 
L 256.808283 208.644923 
L 257.443615 134.208 
L 258.078947 204.509538 
L 258.714279 128.004923 
L 259.34961 196.238769 
L 259.984942 136.275692 
L 260.620274 208.644923 
L 261.255606 144.546462 
L 261.890938 227.254154 
L 262.526269 136.275692 
L 263.161601 214.848 
L 263.796933 138.343385 
L 264.432265 221.051077 
L 265.067597 146.614154 
L 265.702928 235.524923 
L 266.33826 161.088 
L 266.973592 218.983385 
L 267.608924 154.884923 
L 268.244255 245.863385 
L 268.879587 167.291077 
L 269.514919 249.998769 
L 270.150251 177.629538 
L 270.785583 252.066462 
L 271.420914 175.561846 
L 272.056246 256.201846 
L 272.691578 175.561846 
L 273.32691 237.592615 
L 273.962242 183.832615 
L 274.597573 239.660308 
L 275.232905 183.832615 
L 275.868237 237.592615 
L 276.503569 187.968 
L 277.138901 254.134154 
L 277.774232 196.238769 
L 278.409564 235.524923 
L 279.044896 192.103385 
L 279.680228 239.660308 
L 280.31556 208.644923 
L 280.950891 252.066462 
L 281.586223 212.780308 
L 282.221555 245.863385 
L 282.856887 198.306462 
L 283.492218 249.998769 
L 284.12755 198.306462 
L 284.762882 241.728 
L 285.398214 218.983385 
L 286.033546 252.066462 
L 286.668877 229.321846 
L 287.304209 229.321846 
L 287.939541 223.118769 
L 288.574873 235.524923 
L 289.210205 218.983385 
L 289.845536 225.186462 
L 290.480868 252.066462 
L 291.1162 227.254154 
L 291.751532 245.863385 
L 292.386864 227.254154 
L 293.022195 233.457231 
L 293.657527 241.728 
L 294.292859 235.524923 
L 294.928191 221.051077 
L 295.563523 243.795692 
L 296.198854 221.051077 
L 296.834186 239.660308 
L 297.469518 218.983385 
L 298.10485 243.795692 
L 298.740181 204.509538 
L 299.375513 241.728 
L 300.010845 208.644923 
L 300.646177 239.660308 
L 301.281509 208.644923 
L 301.91684 262.404923 
L 302.552172 202.441846 
L 303.187504 252.066462 
L 303.822836 206.577231 
L 304.458168 254.134154 
L 305.093499 208.644923 
L 305.728831 252.066462 
L 306.364163 200.374154 
L 306.999495 258.269538 
L 307.634827 200.374154 
L 308.270158 266.540308 
L 308.90549 187.968 
L 309.540822 276.878769 
L 310.176154 190.035692 
L 310.811486 278.946462 
L 311.446817 196.238769 
L 312.082149 272.743385 
L 312.717481 185.900308 
L 313.352813 283.081846 
L 313.988144 169.358769 
L 314.623476 287.217231 
L 315.258808 173.494154 
L 315.89414 268.608 
L 316.529472 169.358769 
L 317.164803 285.149538 
L 317.800135 171.426462 
L 318.435467 262.404923 
L 319.070799 163.155692 
L 319.706131 287.217231 
L 320.341462 150.749538 
L 320.976794 287.217231 
L 321.612126 142.478769 
L 322.247458 278.946462 
L 322.88279 154.884923 
L 323.518121 266.540308 
L 324.153453 159.020308 
L 324.788785 260.337231 
L 325.424117 119.734154 
L 326.059448 270.675692 
L 326.69478 125.937231 
L 327.330112 272.743385 
L 327.965444 115.598769 
L 328.600776 256.201846 
L 329.236107 125.937231 
L 329.871439 254.134154 
L 330.506771 134.208 
L 331.142103 254.134154 
L 331.777435 132.140308 
L 332.412766 262.404923 
L 333.048098 130.072615 
L 333.68343 272.743385 
L 334.318762 115.598769 
L 334.954094 256.201846 
L 335.589425 115.598769 
L 336.224757 239.660308 
L 336.860089 115.598769 
L 337.495421 241.728 
L 338.130753 128.004923 
L 338.766084 227.254154 
L 339.401416 107.328 
L 340.036748 235.524923 
L 340.67208 80.448 
L 341.307411 235.524923 
L 341.942743 107.328 
L 342.578075 227.254154 
L 343.213407 94.921846 
L 343.848739 218.983385 
L 344.48407 107.328 
L 345.119402 223.118769 
L 345.754734 107.328 
L 346.390066 206.577231 
L 347.025398 103.192615 
L 347.660729 210.712615 
L 348.296061 90.786462 
L 348.931393 206.577231 
L 349.566725 80.448 
L 350.202057 221.051077 
L 350.837388 109.395692 
L 351.47272 194.171077 
L 352.108052 82.515692 
L 352.743384 185.900308 
L 353.378716 96.989538 
L 354.014047 196.238769 
L 354.649379 86.651077 
L 355.284711 175.561846 
L 355.920043 107.328 
L 356.555374 181.764923 
L 357.190706 92.854154 
L 357.826038 183.832615 
L 358.46137 115.598769 
L 359.096702 175.561846 
L 359.732033 99.057231 
L 360.367365 152.817231 
L 361.002697 92.854154 
L 361.638029 165.223385 
L 362.273361 76.312615 
L 362.908692 146.614154 
L 363.544024 121.801846 
L 364.179356 163.155692 
L 364.814688 105.260308 
L 365.45002 154.884923 
L 366.085351 90.786462 
L 366.720683 146.614154 
L 367.356015 94.921846 
L 367.991347 130.072615 
L 368.626679 132.140308 
L 369.26201 136.275692 
L 369.897342 130.072615 
L 370.532674 142.478769 
L 371.168006 134.208 
L 371.803337 123.869538 
L 372.438669 111.463385 
L 373.074001 103.192615 
L 373.709333 130.072615 
L 374.344665 111.463385 
L 374.979996 156.952615 
L 375.615328 128.004923 
L 376.25066 152.817231 
L 376.885992 113.531077 
L 377.521324 165.223385 
L 378.156655 117.666462 
L 378.791987 163.155692 
L 379.427319 105.260308 
L 380.062651 156.952615 
L 380.697983 94.921846 
L 381.333314 163.155692 
L 381.968646 109.395692 
L 382.603978 181.764923 
L 383.23931 103.192615 
L 383.874642 187.968 
L 384.509973 101.124923 
L 385.145305 198.306462 
L 385.780637 76.312615 
L 386.415969 196.238769 
L 387.0513 117.666462 
L 387.686632 200.374154 
L 388.321964 113.531077 
L 388.957296 202.441846 
L 389.592628 107.328 
L 390.227959 223.118769 
L 390.863291 113.531077 
L 391.498623 229.321846 
L 392.133955 88.718769 
L 392.769287 218.983385 
L 393.404618 115.598769 
L 394.03995 223.118769 
L 394.675282 123.869538 
L 395.310614 218.983385 
L 395.945946 128.004923 
L 396.581277 239.660308 
L 397.216609 134.208 
L 397.851941 231.389538 
L 398.487273 123.869538 
L 398.487273 123.869538 
" clip-path="url(#p74592a2db1)" style="fill: none; stroke: #1f77b4; stroke-width: 1.5; stroke-linecap: square"/>
   </g>
   <g id="patch_3">
    <path d="M 57.6 307.584 
L 57.6 41.472 
" style="fill: none; stroke: #000000; stroke-width: 0.8; stroke-linejoin: miter; stroke-linecap: square"/>
   </g>
   <g id="patch_4">
    <path d="M 414.72 307.584 
L 414.72 41.472 
" style="fill: none; stroke: #000000; stroke-width: 0.8; stroke-linejoin: miter; stroke-linecap: square"/>
   </g>
   <g id="patch_5">
    <path d="M 57.6 307.584 
L 414.72 307.584 
" style="fill: none; stroke: #000000; stroke-width: 0.8; stroke-linejoin: miter; stroke-linecap: square"/>
   </g>
   <g id="patch_6">
    <path d="M 57.6 41.472 
L 414.72 41.472 
" style="fill: none; stroke: #000000; stroke-width: 0.8; stroke-linejoin: miter; stroke-linecap: square"/>
   </g>
  </g>
 </g>
 <defs>
  <clipPath id="p74592a2db1">
   <rect x="57.6" y="41.472" width="357.12" height="266.112"/>
  </clipPath>
 </defs>
</svg>
