<?xml version="1.0" encoding="utf-8" standalone="no"?>
<!DOCTYPE svg PUBLIC "-//W3C//DTD SVG 1.1//EN"
  "http://www.w3.org/Graphics/SVG/1.1/DTD/svg11.dtd">
<svg xmlns:xlink="http://www.w3.org/1999/xlink" width="460.8pt" height="345.6pt" viewBox="0 0 460.8 345.6" xmlns="http://www.w3.org/2000/svg" version="1.1">
 <metadata>
  <rdf:RDF xmlns:dc="http://purl.org/dc/elements/1.1/" xmlns:cc="http://creativecommons.org/ns#" xmlns:rdf="http://www.w3.org/1999/02/22-rdf-syntax-ns#">
   <cc:Work>
    <dc:type rdf:resource="http://purl.org/dc/dcmitype/StillImage"/>
    <dc:date>2022-09-20T15:19:32.660876</dc:date>
    <dc:format>image/svg+xml</dc:format>
    <dc:creator>
     <cc:Agent>
      <dc:title>Matplotlib v3.5.3, https://matplotlib.org/</dc:title>
     </cc:Agent>
    </dc:creator>
   </cc:Work>
  </rdf:RDF>
 </metadata>
 <defs>
  <style type="text/css">*{stroke-linejoin: round; stroke-linecap: butt}</style>
 </defs>
 <g id="figure_1">
  <g id="patch_1">
   <path d="M 0 345.6 
L 460.8 345.6 
L 460.8 0 
L 0 0 
z
" style="fill: #ffffff"/>
  </g>
  <g id="axes_1">
   <g id="patch_2">
    <path d="M 57.6 307.584 
L 414.72 307.584 
L 414.72 41.472 
L 57.6 41.472 
z
" style="fill: #ffffff"/>
   </g>
   <g id="matplotlib.axis_1">
    <g id="xtick_1">
     <g id="line2d_1">
      <defs>
       <path id="mb155972922" d="M 0 0 
L 0 3.5 
" style="stroke: #000000; stroke-width: 0.8"/>
      </defs>
      <g>
       <use xlink:href="#mb155972922" x="73.832727" y="307.584" style="stroke: #000000; stroke-width: 0.8"/>
      </g>
     </g>
     <g id="text_1">
      <!-- 0 -->
      <g transform="translate(70.651477 322.182437)scale(0.1 -0.1)">
       <defs>
        <path id="DejaVuSans-30" d="M 2034 4250 
Q 1547 4250 1301 3770 
Q 1056 3291 1056 2328 
Q 1056 1369 1301 889 
Q 1547 409 2034 409 
Q 2525 409 2770 889 
Q 3016 1369 3016 2328 
Q 3016 3291 2770 3770 
Q 2525 4250 2034 4250 
z
M 2034 4750 
Q 2819 4750 3233 4129 
Q 3647 3509 3647 2328 
Q 3647 1150 3233 529 
Q 2819 -91 2034 -91 
Q 1250 -91 836 529 
Q 422 1150 422 2328 
Q 422 3509 836 4129 
Q 1250 4750 2034 4750 
z
" transform="scale(0.015625)"/>
       </defs>
       <use xlink:href="#DejaVuSans-30"/>
      </g>
     </g>
    </g>
    <g id="xtick_2">
     <g id="line2d_2">
      <g>
       <use xlink:href="#mb155972922" x="137.365906" y="307.584" style="stroke: #000000; stroke-width: 0.8"/>
      </g>
     </g>
     <g id="text_2">
      <!-- 100 -->
      <g transform="translate(127.822156 322.182437)scale(0.1 -0.1)">
       <defs>
        <path id="DejaVuSans-31" d="M 794 531 
L 1825 531 
L 1825 4091 
L 703 3866 
L 703 4441 
L 1819 4666 
L 2450 4666 
L 2450 531 
L 3481 531 
L 3481 0 
L 794 0 
L 794 531 
z
" transform="scale(0.015625)"/>
       </defs>
       <use xlink:href="#DejaVuSans-31"/>
       <use xlink:href="#DejaVuSans-30" x="63.623047"/>
       <use xlink:href="#DejaVuSans-30" x="127.246094"/>
      </g>
     </g>
    </g>
    <g id="xtick_3">
     <g id="line2d_3">
      <g>
       <use xlink:href="#mb155972922" x="200.899086" y="307.584" style="stroke: #000000; stroke-width: 0.8"/>
      </g>
     </g>
     <g id="text_3">
      <!-- 200 -->
      <g transform="translate(191.355336 322.182437)scale(0.1 -0.1)">
       <defs>
        <path id="DejaVuSans-32" d="M 1228 531 
L 3431 531 
L 3431 0 
L 469 0 
L 469 531 
Q 828 903 1448 1529 
Q 2069 2156 2228 2338 
Q 2531 2678 2651 2914 
Q 2772 3150 2772 3378 
Q 2772 3750 2511 3984 
Q 2250 4219 1831 4219 
Q 1534 4219 1204 4116 
Q 875 4013 500 3803 
L 500 4441 
Q 881 4594 1212 4672 
Q 1544 4750 1819 4750 
Q 2544 4750 2975 4387 
Q 3406 4025 3406 3419 
Q 3406 3131 3298 2873 
Q 3191 2616 2906 2266 
Q 2828 2175 2409 1742 
Q 1991 1309 1228 531 
z
" transform="scale(0.015625)"/>
       </defs>
       <use xlink:href="#DejaVuSans-32"/>
       <use xlink:href="#DejaVuSans-30" x="63.623047"/>
       <use xlink:href="#DejaVuSans-30" x="127.246094"/>
      </g>
     </g>
    </g>
    <g id="xtick_4">
     <g id="line2d_4">
      <g>
       <use xlink:href="#mb155972922" x="264.432265" y="307.584" style="stroke: #000000; stroke-width: 0.8"/>
      </g>
     </g>
     <g id="text_4">
      <!-- 300 -->
      <g transform="translate(254.888515 322.182437)scale(0.1 -0.1)">
       <defs>
        <path id="DejaVuSans-33" d="M 2597 2516 
Q 3050 2419 3304 2112 
Q 3559 1806 3559 1356 
Q 3559 666 3084 287 
Q 2609 -91 1734 -91 
Q 1441 -91 1130 -33 
Q 819 25 488 141 
L 488 750 
Q 750 597 1062 519 
Q 1375 441 1716 441 
Q 2309 441 2620 675 
Q 2931 909 2931 1356 
Q 2931 1769 2642 2001 
Q 2353 2234 1838 2234 
L 1294 2234 
L 1294 2753 
L 1863 2753 
Q 2328 2753 2575 2939 
Q 2822 3125 2822 3475 
Q 2822 3834 2567 4026 
Q 2313 4219 1838 4219 
Q 1578 4219 1281 4162 
Q 984 4106 628 3988 
L 628 4550 
Q 988 4650 1302 4700 
Q 1616 4750 1894 4750 
Q 2613 4750 3031 4423 
Q 3450 4097 3450 3541 
Q 3450 3153 3228 2886 
Q 3006 2619 2597 2516 
z
" transform="scale(0.015625)"/>
       </defs>
       <use xlink:href="#DejaVuSans-33"/>
       <use xlink:href="#DejaVuSans-30" x="63.623047"/>
       <use xlink:href="#DejaVuSans-30" x="127.246094"/>
      </g>
     </g>
    </g>
    <g id="xtick_5">
     <g id="line2d_5">
      <g>
       <use xlink:href="#mb155972922" x="327.965444" y="307.584" style="stroke: #000000; stroke-width: 0.8"/>
      </g>
     </g>
     <g id="text_5">
      <!-- 400 -->
      <g transform="translate(318.421694 322.182437)scale(0.1 -0.1)">
       <defs>
        <path id="DejaVuSans-34" d="M 2419 4116 
L 825 1625 
L 2419 1625 
L 2419 4116 
z
M 2253 4666 
L 3047 4666 
L 3047 1625 
L 3713 1625 
L 3713 1100 
L 3047 1100 
L 3047 0 
L 2419 0 
L 2419 1100 
L 313 1100 
L 313 1709 
L 2253 4666 
z
" transform="scale(0.015625)"/>
       </defs>
       <use xlink:href="#DejaVuSans-34"/>
       <use xlink:href="#DejaVuSans-30" x="63.623047"/>
       <use xlink:href="#DejaVuSans-30" x="127.246094"/>
      </g>
     </g>
    </g>
    <g id="xtick_6">
     <g id="line2d_6">
      <g>
       <use xlink:href="#mb155972922" x="391.498623" y="307.584" style="stroke: #000000; stroke-width: 0.8"/>
      </g>
     </g>
     <g id="text_6">
      <!-- 500 -->
      <g transform="translate(381.954873 322.182437)scale(0.1 -0.1)">
       <defs>
        <path id="DejaVuSans-35" d="M 691 4666 
L 3169 4666 
L 3169 4134 
L 1269 4134 
L 1269 2991 
Q 1406 3038 1543 3061 
Q 1681 3084 1819 3084 
Q 2600 3084 3056 2656 
Q 3513 2228 3513 1497 
Q 3513 744 3044 326 
Q 2575 -91 1722 -91 
Q 1428 -91 1123 -41 
Q 819 9 494 109 
L 494 744 
Q 775 591 1075 516 
Q 1375 441 1709 441 
Q 2250 441 2565 725 
Q 2881 1009 2881 1497 
Q 2881 1984 2565 2268 
Q 2250 2553 1709 2553 
Q 1456 2553 1204 2497 
Q 953 2441 691 2322 
L 691 4666 
z
" transform="scale(0.015625)"/>
       </defs>
       <use xlink:href="#DejaVuSans-35"/>
       <use xlink:href="#DejaVuSans-30" x="63.623047"/>
       <use xlink:href="#DejaVuSans-30" x="127.246094"/>
      </g>
     </g>
    </g>
   </g>
   <g id="matplotlib.axis_2">
    <g id="ytick_1">
     <g id="line2d_7">
      <defs>
       <path id="mb84450b7e2" d="M 0 0 
L -3.5 0 
" style="stroke: #000000; stroke-width: 0.8"/>
      </defs>
      <g>
       <use xlink:href="#mb84450b7e2" x="57.6" y="296.707355" style="stroke: #000000; stroke-width: 0.8"/>
      </g>
     </g>
     <g id="text_7">
      <!-- 31750 -->
      <g transform="translate(18.7875 300.506574)scale(0.1 -0.1)">
       <defs>
        <path id="DejaVuSans-37" d="M 525 4666 
L 3525 4666 
L 3525 4397 
L 1831 0 
L 1172 0 
L 2766 4134 
L 525 4134 
L 525 4666 
z
" transform="scale(0.015625)"/>
       </defs>
       <use xlink:href="#DejaVuSans-33"/>
       <use xlink:href="#DejaVuSans-31" x="63.623047"/>
       <use xlink:href="#DejaVuSans-37" x="127.246094"/>
       <use xlink:href="#DejaVuSans-35" x="190.869141"/>
       <use xlink:href="#DejaVuSans-30" x="254.492188"/>
      </g>
     </g>
    </g>
    <g id="ytick_2">
     <g id="line2d_8">
      <g>
       <use xlink:href="#mb84450b7e2" x="57.6" y="266.223484" style="stroke: #000000; stroke-width: 0.8"/>
      </g>
     </g>
     <g id="text_8">
      <!-- 32000 -->
      <g transform="translate(18.7875 270.022703)scale(0.1 -0.1)">
       <use xlink:href="#DejaVuSans-33"/>
       <use xlink:href="#DejaVuSans-32" x="63.623047"/>
       <use xlink:href="#DejaVuSans-30" x="127.246094"/>
       <use xlink:href="#DejaVuSans-30" x="190.869141"/>
       <use xlink:href="#DejaVuSans-30" x="254.492188"/>
      </g>
     </g>
    </g>
    <g id="ytick_3">
     <g id="line2d_9">
      <g>
       <use xlink:href="#mb84450b7e2" x="57.6" y="235.739613" style="stroke: #000000; stroke-width: 0.8"/>
      </g>
     </g>
     <g id="text_9">
      <!-- 32250 -->
      <g transform="translate(18.7875 239.538832)scale(0.1 -0.1)">
       <use xlink:href="#DejaVuSans-33"/>
       <use xlink:href="#DejaVuSans-32" x="63.623047"/>
       <use xlink:href="#DejaVuSans-32" x="127.246094"/>
       <use xlink:href="#DejaVuSans-35" x="190.869141"/>
       <use xlink:href="#DejaVuSans-30" x="254.492188"/>
      </g>
     </g>
    </g>
    <g id="ytick_4">
     <g id="line2d_10">
      <g>
       <use xlink:href="#mb84450b7e2" x="57.6" y="205.255742" style="stroke: #000000; stroke-width: 0.8"/>
      </g>
     </g>
     <g id="text_10">
      <!-- 32500 -->
      <g transform="translate(18.7875 209.054961)scale(0.1 -0.1)">
       <use xlink:href="#DejaVuSans-33"/>
       <use xlink:href="#DejaVuSans-32" x="63.623047"/>
       <use xlink:href="#DejaVuSans-35" x="127.246094"/>
       <use xlink:href="#DejaVuSans-30" x="190.869141"/>
       <use xlink:href="#DejaVuSans-30" x="254.492188"/>
      </g>
     </g>
    </g>
    <g id="ytick_5">
     <g id="line2d_11">
      <g>
       <use xlink:href="#mb84450b7e2" x="57.6" y="174.771871" style="stroke: #000000; stroke-width: 0.8"/>
      </g>
     </g>
     <g id="text_11">
      <!-- 32750 -->
      <g transform="translate(18.7875 178.57109)scale(0.1 -0.1)">
       <use xlink:href="#DejaVuSans-33"/>
       <use xlink:href="#DejaVuSans-32" x="63.623047"/>
       <use xlink:href="#DejaVuSans-37" x="127.246094"/>
       <use xlink:href="#DejaVuSans-35" x="190.869141"/>
       <use xlink:href="#DejaVuSans-30" x="254.492188"/>
      </g>
     </g>
    </g>
    <g id="ytick_6">
     <g id="line2d_12">
      <g>
       <use xlink:href="#mb84450b7e2" x="57.6" y="144.288" style="stroke: #000000; stroke-width: 0.8"/>
      </g>
     </g>
     <g id="text_12">
      <!-- 33000 -->
      <g transform="translate(18.7875 148.087219)scale(0.1 -0.1)">
       <use xlink:href="#DejaVuSans-33"/>
       <use xlink:href="#DejaVuSans-33" x="63.623047"/>
       <use xlink:href="#DejaVuSans-30" x="127.246094"/>
       <use xlink:href="#DejaVuSans-30" x="190.869141"/>
       <use xlink:href="#DejaVuSans-30" x="254.492188"/>
      </g>
     </g>
    </g>
    <g id="ytick_7">
     <g id="line2d_13">
      <g>
       <use xlink:href="#mb84450b7e2" x="57.6" y="113.804129" style="stroke: #000000; stroke-width: 0.8"/>
      </g>
     </g>
     <g id="text_13">
      <!-- 33250 -->
      <g transform="translate(18.7875 117.603348)scale(0.1 -0.1)">
       <use xlink:href="#DejaVuSans-33"/>
       <use xlink:href="#DejaVuSans-33" x="63.623047"/>
       <use xlink:href="#DejaVuSans-32" x="127.246094"/>
       <use xlink:href="#DejaVuSans-35" x="190.869141"/>
       <use xlink:href="#DejaVuSans-30" x="254.492188"/>
      </g>
     </g>
    </g>
    <g id="ytick_8">
     <g id="line2d_14">
      <g>
       <use xlink:href="#mb84450b7e2" x="57.6" y="83.320258" style="stroke: #000000; stroke-width: 0.8"/>
      </g>
     </g>
     <g id="text_14">
      <!-- 33500 -->
      <g transform="translate(18.7875 87.119477)scale(0.1 -0.1)">
       <use xlink:href="#DejaVuSans-33"/>
       <use xlink:href="#DejaVuSans-33" x="63.623047"/>
       <use xlink:href="#DejaVuSans-35" x="127.246094"/>
       <use xlink:href="#DejaVuSans-30" x="190.869141"/>
       <use xlink:href="#DejaVuSans-30" x="254.492188"/>
      </g>
     </g>
    </g>
    <g id="ytick_9">
     <g id="line2d_15">
      <g>
       <use xlink:href="#mb84450b7e2" x="57.6" y="52.836387" style="stroke: #000000; stroke-width: 0.8"/>
      </g>
     </g>
     <g id="text_15">
      <!-- 33750 -->
      <g transform="translate(18.7875 56.635606)scale(0.1 -0.1)">
       <use xlink:href="#DejaVuSans-33"/>
       <use xlink:href="#DejaVuSans-33" x="63.623047"/>
       <use xlink:href="#DejaVuSans-37" x="127.246094"/>
       <use xlink:href="#DejaVuSans-35" x="190.869141"/>
       <use xlink:href="#DejaVuSans-30" x="254.492188"/>
      </g>
     </g>
    </g>
   </g>
   <g id="line2d_16">
    <path d="M 73.832727 156.96929 
L 74.468059 125.753806 
L 75.103391 162.822194 
L 75.738723 137.459613 
L 76.374054 158.920258 
L 77.009386 125.753806 
L 77.644718 170.626065 
L 78.28005 131.60671 
L 78.915382 180.380903 
L 79.550713 106.244129 
L 80.186045 192.08671 
L 80.821377 121.851871 
L 81.456709 188.184774 
L 82.092041 135.508645 
L 82.727372 182.331871 
L 83.362704 141.361548 
L 83.998036 186.233806 
L 84.633368 137.459613 
L 85.2687 219.400258 
L 85.904031 112.097032 
L 86.539363 205.743484 
L 87.174695 147.214452 
L 87.810027 209.645419 
L 88.445358 137.459613 
L 89.08069 219.400258 
L 89.716022 143.312516 
L 90.351354 215.498323 
L 90.986686 155.018323 
L 91.622017 217.44929 
L 92.257349 155.018323 
L 92.892681 238.909935 
L 93.528013 153.067355 
L 94.163345 231.106065 
L 94.798676 149.165419 
L 95.434008 219.400258 
L 96.06934 176.478968 
L 96.704672 231.106065 
L 97.340004 170.626065 
L 97.975335 246.713806 
L 98.610667 158.920258 
L 99.245999 246.713806 
L 99.881331 176.478968 
L 100.516663 233.057032 
L 101.151994 180.380903 
L 101.787326 244.762839 
L 102.422658 178.429935 
L 103.05799 229.155097 
L 103.693321 190.135742 
L 104.328653 244.762839 
L 104.963985 180.380903 
L 105.599317 235.008 
L 106.234649 195.988645 
L 106.86998 242.811871 
L 107.505312 203.792516 
L 108.140644 244.762839 
L 108.775976 207.694452 
L 109.411308 233.057032 
L 110.046639 209.645419 
L 110.681971 233.057032 
L 111.317303 215.498323 
L 111.952635 236.958968 
L 112.587967 213.547355 
L 113.223298 231.106065 
L 113.85863 213.547355 
L 114.493962 244.762839 
L 115.129294 221.351226 
L 115.764626 227.204129 
L 116.399957 213.547355 
L 117.035289 225.253161 
L 117.670621 240.860903 
L 118.305953 229.155097 
L 118.941284 231.106065 
L 119.576616 227.204129 
L 120.211948 242.811871 
L 120.84728 219.400258 
L 121.482612 240.860903 
L 122.117943 221.351226 
L 122.753275 227.204129 
L 123.388607 229.155097 
L 124.023939 240.860903 
L 124.659271 217.44929 
L 125.294602 256.468645 
L 125.929934 225.253161 
L 126.565266 248.664774 
L 127.200598 217.44929 
L 127.83593 236.958968 
L 128.471261 205.743484 
L 129.106593 262.321548 
L 129.741925 211.596387 
L 130.377257 248.664774 
L 131.012589 205.743484 
L 131.64792 254.517677 
L 132.283252 194.037677 
L 132.918584 262.321548 
L 133.553916 201.841548 
L 134.189247 238.909935 
L 134.824579 201.841548 
L 135.459911 254.517677 
L 136.095243 194.037677 
L 136.730575 260.370581 
L 137.365906 188.184774 
L 138.001238 272.076387 
L 138.63657 172.577032 
L 139.271902 274.027355 
L 139.907234 190.135742 
L 140.542565 264.272516 
L 141.177897 184.282839 
L 141.813229 264.272516 
L 142.448561 184.282839 
L 143.083893 281.831226 
L 143.719224 170.626065 
L 144.354556 260.370581 
L 144.989888 166.724129 
L 145.62522 275.978323 
L 146.260552 168.675097 
L 146.895883 264.272516 
L 147.531215 162.822194 
L 148.166547 262.321548 
L 148.801879 137.459613 
L 149.43721 275.978323 
L 150.072542 147.214452 
L 150.707874 285.733161 
L 151.343206 139.410581 
L 151.978538 252.56671 
L 152.613869 143.312516 
L 153.249201 266.223484 
L 153.884533 127.704774 
L 154.519865 283.782194 
L 155.155197 127.704774 
L 155.790528 254.517677 
L 156.42586 131.60671 
L 157.061192 252.56671 
L 157.696524 115.998968 
L 158.331856 266.223484 
L 158.967187 127.704774 
L 159.602519 250.615742 
L 160.237851 141.361548 
L 160.873183 240.860903 
L 161.508514 100.391226 
L 162.143846 252.56671 
L 162.779178 127.704774 
L 163.41451 238.909935 
L 164.049842 98.440258 
L 164.685173 242.811871 
L 165.320505 117.949935 
L 165.955837 235.008 
L 166.591169 115.998968 
L 167.226501 240.860903 
L 167.861832 110.146065 
L 168.497164 231.106065 
L 169.132496 96.48929 
L 169.767828 235.008 
L 170.40316 100.391226 
L 171.038491 229.155097 
L 171.673823 102.342194 
L 172.309155 236.958968 
L 172.944487 110.146065 
L 173.579819 215.498323 
L 174.21515 115.998968 
L 174.850482 194.037677 
L 175.485814 76.979613 
L 176.121146 203.792516 
L 176.756477 76.979613 
L 177.391809 213.547355 
L 178.027141 104.293161 
L 178.662473 192.08671 
L 179.297805 94.538323 
L 179.933136 174.528 
L 180.568468 108.195097 
L 181.2038 182.331871 
L 181.839132 76.979613 
L 182.474464 178.429935 
L 183.109795 100.391226 
L 183.745127 174.528 
L 184.380459 94.538323 
L 185.015791 176.478968 
L 185.651123 115.998968 
L 186.286454 174.528 
L 186.921786 110.146065 
L 187.557118 170.626065 
L 188.19245 96.48929 
L 188.827782 166.724129 
L 189.463113 102.342194 
L 190.098445 160.871226 
L 190.733777 115.998968 
L 191.369109 164.773161 
L 192.00444 92.587355 
L 192.639772 143.312516 
L 193.275104 104.293161 
L 193.910436 141.361548 
L 194.545768 110.146065 
L 195.181099 137.459613 
L 195.816431 110.146065 
L 196.451763 129.655742 
L 197.087095 129.655742 
L 197.722427 131.60671 
L 198.357758 125.753806 
L 198.99309 114.048 
L 199.628422 145.263484 
L 200.263754 112.097032 
L 200.899086 133.557677 
L 201.534417 121.851871 
L 202.169749 139.410581 
L 202.805081 98.440258 
L 203.440413 151.116387 
L 204.075745 102.342194 
L 204.711076 149.165419 
L 205.346408 96.48929 
L 205.98174 170.626065 
L 206.617072 96.48929 
L 207.252403 155.018323 
L 207.887735 104.293161 
L 208.523067 174.528 
L 209.158399 102.342194 
L 209.793731 164.773161 
L 210.429062 96.48929 
L 211.064394 180.380903 
L 211.699726 86.734452 
L 212.335058 188.184774 
L 212.97039 104.293161 
L 213.605721 186.233806 
L 214.241053 84.783484 
L 214.876385 195.988645 
L 215.511717 112.097032 
L 216.147049 203.792516 
L 216.78238 102.342194 
L 217.417712 209.645419 
L 218.053044 131.60671 
L 218.688376 219.400258 
L 219.323708 117.949935 
L 219.959039 221.351226 
L 220.594371 114.048 
L 221.229703 209.645419 
L 221.865035 106.244129 
L 222.500366 227.204129 
L 223.135698 121.851871 
L 223.77103 231.106065 
L 224.406362 135.508645 
L 225.041694 235.008 
L 225.677025 125.753806 
L 226.312357 139.410581 
L 226.947689 192.08671 
L 227.583021 110.146065 
L 228.218353 194.037677 
L 228.853684 86.734452 
L 229.489016 199.890581 
L 230.124348 53.568 
L 230.75968 195.988645 
L 231.395012 71.12671 
L 232.030343 180.380903 
L 232.665675 63.322839 
L 233.301007 188.184774 
L 233.936339 78.930581 
L 234.571671 194.037677 
L 235.207002 86.734452 
L 235.842334 186.233806 
L 236.477666 94.538323 
L 237.112998 186.233806 
L 237.748329 71.12671 
L 238.383661 190.135742 
L 239.018993 90.636387 
L 239.654325 178.429935 
L 240.289657 86.734452 
L 240.924988 178.429935 
L 241.56032 78.930581 
L 242.195652 151.116387 
L 242.830984 96.48929 
L 243.466316 170.626065 
L 244.101647 94.538323 
L 244.736979 158.920258 
L 245.372311 96.48929 
L 246.007643 158.920258 
L 246.642975 104.293161 
L 247.278306 162.822194 
L 247.913638 106.244129 
L 248.54897 172.577032 
L 249.184302 96.48929 
L 249.819634 170.626065 
L 250.454965 104.293161 
L 251.090297 168.675097 
L 251.725629 112.097032 
L 252.360961 172.577032 
L 252.996292 119.900903 
L 253.631624 162.822194 
L 254.266956 117.949935 
L 254.902288 172.577032 
L 255.53762 115.998968 
L 256.172951 158.920258 
L 256.808283 135.508645 
L 257.443615 164.773161 
L 258.078947 133.557677 
L 258.714279 176.478968 
L 259.34961 125.753806 
L 259.984942 170.626065 
L 260.620274 151.116387 
L 261.255606 164.773161 
L 261.890938 121.851871 
L 262.526269 155.018323 
L 263.161601 123.802839 
L 263.796933 170.626065 
L 264.432265 149.165419 
L 265.067597 170.626065 
L 265.702928 155.018323 
L 266.33826 168.675097 
L 266.973592 147.214452 
L 267.608924 151.116387 
L 268.244255 145.263484 
L 268.879587 174.528 
L 269.514919 145.263484 
L 270.785583 160.871226 
L 271.420914 160.871226 
L 272.056246 162.822194 
L 272.691578 174.528 
L 273.32691 156.96929 
L 273.962242 162.822194 
L 274.597573 166.724129 
L 275.232905 162.822194 
L 275.868237 155.018323 
L 276.503569 170.626065 
L 277.138901 180.380903 
L 277.774232 170.626065 
L 278.409564 182.331871 
L 279.044896 190.135742 
L 279.680228 180.380903 
L 280.31556 174.528 
L 280.950891 188.184774 
L 281.586223 170.626065 
L 282.221555 182.331871 
L 282.856887 172.577032 
L 283.492218 178.429935 
L 284.12755 178.429935 
L 284.762882 190.135742 
L 285.398214 176.478968 
L 286.033546 201.841548 
L 286.668877 188.184774 
L 287.304209 197.939613 
L 287.939541 190.135742 
L 288.574873 186.233806 
L 289.210205 201.841548 
L 289.845536 211.596387 
L 290.480868 195.988645 
L 291.1162 188.184774 
L 291.751532 197.939613 
L 292.386864 199.890581 
L 293.022195 217.44929 
L 293.657527 215.498323 
L 294.292859 221.351226 
L 294.928191 203.792516 
L 295.563523 211.596387 
L 296.198854 195.988645 
L 296.834186 223.302194 
L 297.469518 190.135742 
L 298.10485 223.302194 
L 298.740181 195.988645 
L 299.375513 248.664774 
L 300.010845 203.792516 
L 300.646177 235.008 
L 301.281509 188.184774 
L 301.91684 221.351226 
L 302.552172 209.645419 
L 303.187504 227.204129 
L 303.822836 207.694452 
L 304.458168 246.713806 
L 305.093499 203.792516 
L 305.728831 264.272516 
L 306.364163 195.988645 
L 306.999495 258.419613 
L 307.634827 192.08671 
L 308.270158 256.468645 
L 308.90549 188.184774 
L 309.540822 258.419613 
L 310.176154 184.282839 
L 310.811486 270.125419 
L 311.446817 176.478968 
L 312.082149 277.92929 
L 312.717481 156.96929 
L 313.352813 266.223484 
L 313.988144 174.528 
L 314.623476 266.223484 
L 315.258808 176.478968 
L 315.89414 270.125419 
L 316.529472 168.675097 
L 317.164803 277.92929 
L 317.800135 164.773161 
L 318.435467 287.684129 
L 319.070799 147.214452 
L 319.706131 270.125419 
L 320.341462 151.116387 
L 320.976794 268.174452 
L 321.612126 145.263484 
L 322.247458 266.223484 
L 322.88279 151.116387 
L 323.518121 262.321548 
L 324.153453 135.508645 
L 324.788785 293.537032 
L 325.424117 127.704774 
L 326.059448 295.488 
L 326.69478 129.655742 
L 327.330112 275.978323 
L 327.965444 129.655742 
L 328.600776 266.223484 
L 329.236107 137.459613 
L 329.871439 277.92929 
L 330.506771 123.802839 
L 331.142103 277.92929 
L 331.777435 141.361548 
L 332.412766 270.125419 
L 333.048098 117.949935 
L 333.68343 272.076387 
L 334.318762 112.097032 
L 334.954094 266.223484 
L 335.589425 115.998968 
L 336.224757 256.468645 
L 336.860089 110.146065 
L 337.495421 275.978323 
L 338.130753 108.195097 
L 338.766084 252.56671 
L 339.401416 100.391226 
L 340.036748 268.174452 
L 340.67208 112.097032 
L 341.307411 240.860903 
L 341.942743 90.636387 
L 342.578075 258.419613 
L 343.213407 104.293161 
L 343.848739 268.174452 
L 344.48407 100.391226 
L 345.119402 236.958968 
L 345.754734 82.832516 
L 346.390066 254.517677 
L 347.025398 96.48929 
L 347.660729 235.008 
L 348.296061 90.636387 
L 348.931393 231.106065 
L 349.566725 88.685419 
L 350.202057 223.302194 
L 350.837388 84.783484 
L 351.47272 235.008 
L 352.108052 98.440258 
L 352.743384 219.400258 
L 353.378716 80.881548 
L 354.014047 207.694452 
L 354.649379 80.881548 
L 355.284711 211.596387 
L 355.920043 96.48929 
L 356.555374 207.694452 
L 357.190706 75.028645 
L 357.826038 209.645419 
L 358.46137 82.832516 
L 359.096702 207.694452 
L 359.732033 75.028645 
L 360.367365 207.694452 
L 361.002697 88.685419 
L 361.638029 199.890581 
L 362.273361 90.636387 
L 362.908692 201.841548 
L 363.544024 78.930581 
L 364.179356 190.135742 
L 364.814688 100.391226 
L 365.45002 190.135742 
L 366.085351 106.244129 
L 366.720683 174.528 
L 367.356015 84.783484 
L 367.991347 176.478968 
L 368.626679 82.832516 
L 369.26201 160.871226 
L 369.897342 94.538323 
L 370.532674 166.724129 
L 371.168006 106.244129 
L 371.803337 166.724129 
L 372.438669 104.293161 
L 373.074001 172.577032 
L 373.709333 114.048 
L 374.344665 153.067355 
L 374.979996 110.146065 
L 375.615328 162.822194 
L 376.25066 90.636387 
L 376.885992 158.920258 
L 377.521324 117.949935 
L 378.156655 153.067355 
L 378.791987 133.557677 
L 379.427319 164.773161 
L 380.062651 115.998968 
L 380.697983 135.508645 
L 381.333314 106.244129 
L 381.968646 147.214452 
L 382.603978 114.048 
L 383.23931 151.116387 
L 383.874642 119.900903 
L 384.509973 158.920258 
L 385.145305 115.998968 
L 385.780637 147.214452 
L 386.415969 119.900903 
L 387.0513 133.557677 
L 388.321964 137.459613 
L 388.957296 127.704774 
L 389.592628 137.459613 
L 390.227959 133.557677 
L 390.863291 153.067355 
L 391.498623 135.508645 
L 392.769287 158.920258 
L 393.404618 155.018323 
L 394.03995 143.312516 
L 394.675282 127.704774 
L 395.310614 143.312516 
L 395.945946 131.60671 
L 396.581277 149.165419 
L 397.216609 131.60671 
L 397.851941 168.675097 
L 398.487273 133.557677 
L 398.487273 133.557677 
" clip-path="url(#pfce87640dc)" style="fill: none; stroke: #1f77b4; stroke-width: 1.5; stroke-linecap: square"/>
   </g>
   <g id="patch_3">
    <path d="M 57.6 307.584 
L 57.6 41.472 
" style="fill: none; stroke: #000000; stroke-width: 0.8; stroke-linejoin: miter; stroke-linecap: square"/>
   </g>
   <g id="patch_4">
    <path d="M 414.72 307.584 
L 414.72 41.472 
" style="fill: none; stroke: #000000; stroke-width: 0.8; stroke-linejoin: miter; stroke-linecap: square"/>
   </g>
   <g id="patch_5">
    <path d="M 57.6 307.584 
L 414.72 307.584 
" style="fill: none; stroke: #000000; stroke-width: 0.8; stroke-linejoin: miter; stroke-linecap: square"/>
   </g>
   <g id="patch_6">
    <path d="M 57.6 41.472 
L 414.72 41.472 
" style="fill: none; stroke: #000000; stroke-width: 0.8; stroke-linejoin: miter; stroke-linecap: square"/>
   </g>
  </g>
 </g>
 <defs>
  <clipPath id="pfce87640dc">
   <rect x="57.6" y="41.472" width="357.12" height="266.112"/>
  </clipPath>
 </defs>
</svg>
