<?xml version="1.0" encoding="utf-8" standalone="no"?>
<!DOCTYPE svg PUBLIC "-//W3C//DTD SVG 1.1//EN"
  "http://www.w3.org/Graphics/SVG/1.1/DTD/svg11.dtd">
<svg xmlns:xlink="http://www.w3.org/1999/xlink" width="460.8pt" height="345.6pt" viewBox="0 0 460.8 345.6" xmlns="http://www.w3.org/2000/svg" version="1.1">
 <metadata>
  <rdf:RDF xmlns:dc="http://purl.org/dc/elements/1.1/" xmlns:cc="http://creativecommons.org/ns#" xmlns:rdf="http://www.w3.org/1999/02/22-rdf-syntax-ns#">
   <cc:Work>
    <dc:type rdf:resource="http://purl.org/dc/dcmitype/StillImage"/>
    <dc:date>2022-09-20T13:46:22.898133</dc:date>
    <dc:format>image/svg+xml</dc:format>
    <dc:creator>
     <cc:Agent>
      <dc:title>Matplotlib v3.5.3, https://matplotlib.org/</dc:title>
     </cc:Agent>
    </dc:creator>
   </cc:Work>
  </rdf:RDF>
 </metadata>
 <defs>
  <style type="text/css">*{stroke-linejoin: round; stroke-linecap: butt}</style>
 </defs>
 <g id="figure_1">
  <g id="patch_1">
   <path d="M 0 345.6 
L 460.8 345.6 
L 460.8 0 
L 0 0 
z
" style="fill: #ffffff"/>
  </g>
  <g id="axes_1">
   <g id="patch_2">
    <path d="M 57.6 108 
L 414.72 108 
L 414.72 41.472 
L 57.6 41.472 
z
" style="fill: #ffffff"/>
   </g>
   <g id="matplotlib.axis_1">
    <g id="xtick_1">
     <g id="line2d_1">
      <defs>
       <path id="m23ff0f7857" d="M 0 0 
L 0 3.5 
" style="stroke: #000000; stroke-width: 0.8"/>
      </defs>
      <g>
       <use xlink:href="#m23ff0f7857" x="73.832727" y="108" style="stroke: #000000; stroke-width: 0.8"/>
      </g>
     </g>
     <g id="text_1">
      <!-- 0 -->
      <g transform="translate(70.651477 122.598437)scale(0.1 -0.1)">
       <defs>
        <path id="DejaVuSans-30" d="M 2034 4250 
Q 1547 4250 1301 3770 
Q 1056 3291 1056 2328 
Q 1056 1369 1301 889 
Q 1547 409 2034 409 
Q 2525 409 2770 889 
Q 3016 1369 3016 2328 
Q 3016 3291 2770 3770 
Q 2525 4250 2034 4250 
z
M 2034 4750 
Q 2819 4750 3233 4129 
Q 3647 3509 3647 2328 
Q 3647 1150 3233 529 
Q 2819 -91 2034 -91 
Q 1250 -91 836 529 
Q 422 1150 422 2328 
Q 422 3509 836 4129 
Q 1250 4750 2034 4750 
z
" transform="scale(0.015625)"/>
       </defs>
       <use xlink:href="#DejaVuSans-30"/>
      </g>
     </g>
    </g>
    <g id="xtick_2">
     <g id="line2d_2">
      <g>
       <use xlink:href="#m23ff0f7857" x="114.618474" y="108" style="stroke: #000000; stroke-width: 0.8"/>
      </g>
     </g>
     <g id="text_2">
      <!-- 25 -->
      <g transform="translate(108.255974 122.598437)scale(0.1 -0.1)">
       <defs>
        <path id="DejaVuSans-32" d="M 1228 531 
L 3431 531 
L 3431 0 
L 469 0 
L 469 531 
Q 828 903 1448 1529 
Q 2069 2156 2228 2338 
Q 2531 2678 2651 2914 
Q 2772 3150 2772 3378 
Q 2772 3750 2511 3984 
Q 2250 4219 1831 4219 
Q 1534 4219 1204 4116 
Q 875 4013 500 3803 
L 500 4441 
Q 881 4594 1212 4672 
Q 1544 4750 1819 4750 
Q 2544 4750 2975 4387 
Q 3406 4025 3406 3419 
Q 3406 3131 3298 2873 
Q 3191 2616 2906 2266 
Q 2828 2175 2409 1742 
Q 1991 1309 1228 531 
z
" transform="scale(0.015625)"/>
        <path id="DejaVuSans-35" d="M 691 4666 
L 3169 4666 
L 3169 4134 
L 1269 4134 
L 1269 2991 
Q 1406 3038 1543 3061 
Q 1681 3084 1819 3084 
Q 2600 3084 3056 2656 
Q 3513 2228 3513 1497 
Q 3513 744 3044 326 
Q 2575 -91 1722 -91 
Q 1428 -91 1123 -41 
Q 819 9 494 109 
L 494 744 
Q 775 591 1075 516 
Q 1375 441 1709 441 
Q 2250 441 2565 725 
Q 2881 1009 2881 1497 
Q 2881 1984 2565 2268 
Q 2250 2553 1709 2553 
Q 1456 2553 1204 2497 
Q 953 2441 691 2322 
L 691 4666 
z
" transform="scale(0.015625)"/>
       </defs>
       <use xlink:href="#DejaVuSans-32"/>
       <use xlink:href="#DejaVuSans-35" x="63.623047"/>
      </g>
     </g>
    </g>
    <g id="xtick_3">
     <g id="line2d_3">
      <g>
       <use xlink:href="#m23ff0f7857" x="155.404221" y="108" style="stroke: #000000; stroke-width: 0.8"/>
      </g>
     </g>
     <g id="text_3">
      <!-- 50 -->
      <g transform="translate(149.041721 122.598437)scale(0.1 -0.1)">
       <use xlink:href="#DejaVuSans-35"/>
       <use xlink:href="#DejaVuSans-30" x="63.623047"/>
      </g>
     </g>
    </g>
    <g id="xtick_4">
     <g id="line2d_4">
      <g>
       <use xlink:href="#m23ff0f7857" x="196.189968" y="108" style="stroke: #000000; stroke-width: 0.8"/>
      </g>
     </g>
     <g id="text_4">
      <!-- 75 -->
      <g transform="translate(189.827468 122.598437)scale(0.1 -0.1)">
       <defs>
        <path id="DejaVuSans-37" d="M 525 4666 
L 3525 4666 
L 3525 4397 
L 1831 0 
L 1172 0 
L 2766 4134 
L 525 4134 
L 525 4666 
z
" transform="scale(0.015625)"/>
       </defs>
       <use xlink:href="#DejaVuSans-37"/>
       <use xlink:href="#DejaVuSans-35" x="63.623047"/>
      </g>
     </g>
    </g>
    <g id="xtick_5">
     <g id="line2d_5">
      <g>
       <use xlink:href="#m23ff0f7857" x="236.975715" y="108" style="stroke: #000000; stroke-width: 0.8"/>
      </g>
     </g>
     <g id="text_5">
      <!-- 100 -->
      <g transform="translate(227.431965 122.598437)scale(0.1 -0.1)">
       <defs>
        <path id="DejaVuSans-31" d="M 794 531 
L 1825 531 
L 1825 4091 
L 703 3866 
L 703 4441 
L 1819 4666 
L 2450 4666 
L 2450 531 
L 3481 531 
L 3481 0 
L 794 0 
L 794 531 
z
" transform="scale(0.015625)"/>
       </defs>
       <use xlink:href="#DejaVuSans-31"/>
       <use xlink:href="#DejaVuSans-30" x="63.623047"/>
       <use xlink:href="#DejaVuSans-30" x="127.246094"/>
      </g>
     </g>
    </g>
    <g id="xtick_6">
     <g id="line2d_6">
      <g>
       <use xlink:href="#m23ff0f7857" x="277.761462" y="108" style="stroke: #000000; stroke-width: 0.8"/>
      </g>
     </g>
     <g id="text_6">
      <!-- 125 -->
      <g transform="translate(268.217712 122.598437)scale(0.1 -0.1)">
       <use xlink:href="#DejaVuSans-31"/>
       <use xlink:href="#DejaVuSans-32" x="63.623047"/>
       <use xlink:href="#DejaVuSans-35" x="127.246094"/>
      </g>
     </g>
    </g>
    <g id="xtick_7">
     <g id="line2d_7">
      <g>
       <use xlink:href="#m23ff0f7857" x="318.547209" y="108" style="stroke: #000000; stroke-width: 0.8"/>
      </g>
     </g>
     <g id="text_7">
      <!-- 150 -->
      <g transform="translate(309.003459 122.598437)scale(0.1 -0.1)">
       <use xlink:href="#DejaVuSans-31"/>
       <use xlink:href="#DejaVuSans-35" x="63.623047"/>
       <use xlink:href="#DejaVuSans-30" x="127.246094"/>
      </g>
     </g>
    </g>
    <g id="xtick_8">
     <g id="line2d_8">
      <g>
       <use xlink:href="#m23ff0f7857" x="359.332956" y="108" style="stroke: #000000; stroke-width: 0.8"/>
      </g>
     </g>
     <g id="text_8">
      <!-- 175 -->
      <g transform="translate(349.789206 122.598437)scale(0.1 -0.1)">
       <use xlink:href="#DejaVuSans-31"/>
       <use xlink:href="#DejaVuSans-37" x="63.623047"/>
       <use xlink:href="#DejaVuSans-35" x="127.246094"/>
      </g>
     </g>
    </g>
    <g id="xtick_9">
     <g id="line2d_9">
      <g>
       <use xlink:href="#m23ff0f7857" x="400.118703" y="108" style="stroke: #000000; stroke-width: 0.8"/>
      </g>
     </g>
     <g id="text_9">
      <!-- 200 -->
      <g transform="translate(390.574953 122.598437)scale(0.1 -0.1)">
       <use xlink:href="#DejaVuSans-32"/>
       <use xlink:href="#DejaVuSans-30" x="63.623047"/>
       <use xlink:href="#DejaVuSans-30" x="127.246094"/>
      </g>
     </g>
    </g>
   </g>
   <g id="matplotlib.axis_2">
    <g id="ytick_1">
     <g id="line2d_10">
      <defs>
       <path id="m23f93571b1" d="M 0 0 
L -3.5 0 
" style="stroke: #000000; stroke-width: 0.8"/>
      </defs>
      <g>
       <use xlink:href="#m23f93571b1" x="57.6" y="91.116" style="stroke: #000000; stroke-width: 0.8"/>
      </g>
     </g>
     <g id="text_10">
      <!-- 32000 -->
      <g transform="translate(18.7875 94.915219)scale(0.1 -0.1)">
       <defs>
        <path id="DejaVuSans-33" d="M 2597 2516 
Q 3050 2419 3304 2112 
Q 3559 1806 3559 1356 
Q 3559 666 3084 287 
Q 2609 -91 1734 -91 
Q 1441 -91 1130 -33 
Q 819 25 488 141 
L 488 750 
Q 750 597 1062 519 
Q 1375 441 1716 441 
Q 2309 441 2620 675 
Q 2931 909 2931 1356 
Q 2931 1769 2642 2001 
Q 2353 2234 1838 2234 
L 1294 2234 
L 1294 2753 
L 1863 2753 
Q 2328 2753 2575 2939 
Q 2822 3125 2822 3475 
Q 2822 3834 2567 4026 
Q 2313 4219 1838 4219 
Q 1578 4219 1281 4162 
Q 984 4106 628 3988 
L 628 4550 
Q 988 4650 1302 4700 
Q 1616 4750 1894 4750 
Q 2613 4750 3031 4423 
Q 3450 4097 3450 3541 
Q 3450 3153 3228 2886 
Q 3006 2619 2597 2516 
z
" transform="scale(0.015625)"/>
       </defs>
       <use xlink:href="#DejaVuSans-33"/>
       <use xlink:href="#DejaVuSans-32" x="63.623047"/>
       <use xlink:href="#DejaVuSans-30" x="127.246094"/>
       <use xlink:href="#DejaVuSans-30" x="190.869141"/>
       <use xlink:href="#DejaVuSans-30" x="254.492188"/>
      </g>
     </g>
    </g>
    <g id="ytick_2">
     <g id="line2d_11">
      <g>
       <use xlink:href="#m23f93571b1" x="57.6" y="64.866" style="stroke: #000000; stroke-width: 0.8"/>
      </g>
     </g>
     <g id="text_11">
      <!-- 33000 -->
      <g transform="translate(18.7875 68.665219)scale(0.1 -0.1)">
       <use xlink:href="#DejaVuSans-33"/>
       <use xlink:href="#DejaVuSans-33" x="63.623047"/>
       <use xlink:href="#DejaVuSans-30" x="127.246094"/>
       <use xlink:href="#DejaVuSans-30" x="190.869141"/>
       <use xlink:href="#DejaVuSans-30" x="254.492188"/>
      </g>
     </g>
    </g>
   </g>
   <g id="line2d_12">
    <path d="M 73.832727 60.876 
L 75.464157 79.356 
L 77.095587 55.836 
L 78.727017 78.936 
L 80.358447 57.096 
L 81.989877 75.996 
L 83.621307 59.616 
L 85.252736 77.676 
L 86.884166 58.356 
L 88.515596 76.416 
L 90.147026 60.456 
L 91.778456 75.156 
L 93.409886 60.456 
L 95.041316 74.316 
L 96.672746 57.936 
L 98.304175 73.056 
L 99.935605 56.256 
L 101.567035 70.956 
L 103.198465 55.836 
L 104.829895 70.956 
L 106.461325 60.036 
L 108.092755 71.796 
L 109.724185 54.156 
L 111.355614 70.956 
L 112.987044 56.256 
L 114.618474 65.916 
L 116.249904 58.356 
L 117.881334 67.596 
L 119.512764 54.576 
L 121.144194 62.976 
L 122.775624 57.936 
L 124.407053 65.496 
L 126.038483 55.416 
L 127.669913 62.976 
L 129.301343 59.616 
L 130.932773 65.076 
L 132.564203 58.776 
L 134.195633 62.556 
L 135.827063 62.556 
L 137.458492 60.036 
L 139.089922 58.356 
L 140.721352 59.616 
L 142.352782 61.716 
L 143.984212 60.036 
L 145.615642 60.876 
L 147.247072 62.556 
L 148.878502 59.196 
L 150.509931 57.516 
L 152.141361 61.296 
L 153.772791 58.356 
L 155.404221 62.136 
L 157.035651 54.156 
L 158.667081 64.236 
L 160.298511 54.996 
L 161.929941 68.436 
L 163.56137 53.316 
L 165.1928 65.916 
L 166.82423 55.836 
L 168.45566 68.436 
L 170.08709 52.476 
L 171.71852 68.436 
L 173.34995 51.216 
L 174.98138 68.856 
L 176.61281 47.856 
L 178.244239 74.736 
L 179.875669 49.536 
L 181.507099 75.156 
L 183.138529 51.636 
L 184.769959 75.576 
L 186.401389 54.156 
L 188.032819 76.416 
L 189.664249 55.416 
L 191.295678 75.996 
L 192.927108 48.696 
L 194.558538 78.516 
L 196.189968 44.496 
L 197.821398 79.776 
L 199.452828 54.996 
L 201.084258 80.616 
L 202.715688 53.736 
L 204.347117 83.136 
L 205.978547 56.256 
L 207.609977 83.556 
L 209.241407 52.476 
L 210.872837 83.976 
L 212.504267 51.636 
L 214.135697 85.656 
L 215.767127 52.896 
L 217.398556 89.016 
L 219.029986 54.576 
L 220.661416 86.076 
L 222.292846 57.516 
L 223.924276 91.116 
L 225.555706 50.376 
L 227.187136 91.536 
L 228.818566 55.416 
L 230.449995 94.896 
L 232.081425 54.576 
L 233.712855 87.336 
L 235.344285 60.456 
L 236.975715 92.376 
L 238.607145 59.196 
L 240.238575 94.896 
L 241.870005 60.456 
L 243.501434 94.056 
L 245.132864 56.676 
L 246.764294 101.196 
L 248.395724 60.036 
L 250.027154 92.796 
L 251.658584 61.296 
L 253.290014 93.636 
L 254.921444 63.816 
L 256.552873 97.836 
L 258.184303 64.236 
L 259.815733 101.196 
L 261.447163 63.396 
L 263.078593 96.156 
L 264.710023 69.696 
L 266.341453 96.996 
L 267.972883 68.436 
L 269.604312 101.196 
L 271.235742 65.916 
L 272.867172 98.256 
L 274.498602 70.956 
L 276.130032 104.556 
L 277.761462 69.276 
L 279.392892 100.776 
L 281.024322 72.216 
L 282.655751 101.196 
L 284.287181 72.636 
L 285.918611 97.836 
L 287.550041 70.956 
L 289.181471 101.616 
L 290.812901 75.156 
L 292.444331 104.976 
L 294.075761 75.996 
L 295.70719 102.036 
L 297.33862 77.676 
L 298.97005 98.676 
L 300.60148 76.836 
L 302.23291 98.256 
L 303.86434 81.876 
L 305.49577 95.316 
L 307.1272 80.616 
L 308.75863 99.096 
L 310.390059 83.556 
L 312.021489 98.676 
L 313.652919 81.036 
L 315.284349 96.156 
L 316.915779 83.556 
L 318.547209 99.936 
L 320.178639 87.756 
L 321.810069 96.576 
L 323.441498 83.556 
L 325.072928 94.896 
L 326.704358 88.176 
L 328.335788 94.476 
L 329.967218 89.436 
L 331.598648 89.016 
L 333.230078 86.076 
L 334.861508 90.276 
L 338.124367 91.956 
L 339.755797 93.216 
L 341.387227 89.016 
L 343.018657 91.956 
L 344.650087 93.216 
L 346.281517 98.256 
L 347.912947 85.656 
L 349.544376 92.796 
L 351.175806 85.236 
L 352.807236 96.996 
L 354.438666 87.336 
L 356.070096 93.216 
L 357.701526 85.656 
L 359.332956 99.516 
L 360.964386 84.396 
L 362.595815 98.256 
L 364.227245 81.456 
L 365.858675 94.476 
L 367.490105 81.036 
L 369.121535 95.316 
L 370.752965 83.136 
L 372.384395 102.036 
L 374.015825 81.456 
L 375.647254 101.196 
L 377.278684 75.576 
L 378.910114 101.616 
L 380.541544 76.416 
L 382.172974 97.836 
L 383.804404 77.256 
L 385.435834 97.836 
L 387.067264 73.896 
L 388.698693 101.196 
L 390.330123 71.376 
L 391.961553 99.936 
L 393.592983 71.796 
L 395.224413 97.836 
L 396.855843 69.696 
L 398.487273 100.356 
L 398.487273 100.356 
" clip-path="url(#pcb41781f50)" style="fill: none; stroke: #1f77b4; stroke-width: 1.5; stroke-linecap: square"/>
   </g>
   <g id="patch_3">
    <path d="M 57.6 108 
L 57.6 41.472 
" style="fill: none; stroke: #000000; stroke-width: 0.8; stroke-linejoin: miter; stroke-linecap: square"/>
   </g>
   <g id="patch_4">
    <path d="M 414.72 108 
L 414.72 41.472 
" style="fill: none; stroke: #000000; stroke-width: 0.8; stroke-linejoin: miter; stroke-linecap: square"/>
   </g>
   <g id="patch_5">
    <path d="M 57.6 108 
L 414.72 108 
" style="fill: none; stroke: #000000; stroke-width: 0.8; stroke-linejoin: miter; stroke-linecap: square"/>
   </g>
   <g id="patch_6">
    <path d="M 57.6 41.472 
L 414.72 41.472 
" style="fill: none; stroke: #000000; stroke-width: 0.8; stroke-linejoin: miter; stroke-linecap: square"/>
   </g>
  </g>
  <g id="axes_2">
   <g id="patch_7">
    <path d="M 57.6 207.792 
L 414.72 207.792 
L 414.72 141.264 
L 57.6 141.264 
z
" style="fill: #ffffff"/>
   </g>
   <g id="matplotlib.axis_3">
    <g id="xtick_10">
     <g id="line2d_13">
      <g>
       <use xlink:href="#m23ff0f7857" x="73.832727" y="207.792" style="stroke: #000000; stroke-width: 0.8"/>
      </g>
     </g>
     <g id="text_12">
      <!-- 0 -->
      <g transform="translate(70.651477 222.390437)scale(0.1 -0.1)">
       <use xlink:href="#DejaVuSans-30"/>
      </g>
     </g>
    </g>
    <g id="xtick_11">
     <g id="line2d_14">
      <g>
       <use xlink:href="#m23ff0f7857" x="114.618474" y="207.792" style="stroke: #000000; stroke-width: 0.8"/>
      </g>
     </g>
     <g id="text_13">
      <!-- 25 -->
      <g transform="translate(108.255974 222.390437)scale(0.1 -0.1)">
       <use xlink:href="#DejaVuSans-32"/>
       <use xlink:href="#DejaVuSans-35" x="63.623047"/>
      </g>
     </g>
    </g>
    <g id="xtick_12">
     <g id="line2d_15">
      <g>
       <use xlink:href="#m23ff0f7857" x="155.404221" y="207.792" style="stroke: #000000; stroke-width: 0.8"/>
      </g>
     </g>
     <g id="text_14">
      <!-- 50 -->
      <g transform="translate(149.041721 222.390437)scale(0.1 -0.1)">
       <use xlink:href="#DejaVuSans-35"/>
       <use xlink:href="#DejaVuSans-30" x="63.623047"/>
      </g>
     </g>
    </g>
    <g id="xtick_13">
     <g id="line2d_16">
      <g>
       <use xlink:href="#m23ff0f7857" x="196.189968" y="207.792" style="stroke: #000000; stroke-width: 0.8"/>
      </g>
     </g>
     <g id="text_15">
      <!-- 75 -->
      <g transform="translate(189.827468 222.390437)scale(0.1 -0.1)">
       <use xlink:href="#DejaVuSans-37"/>
       <use xlink:href="#DejaVuSans-35" x="63.623047"/>
      </g>
     </g>
    </g>
    <g id="xtick_14">
     <g id="line2d_17">
      <g>
       <use xlink:href="#m23ff0f7857" x="236.975715" y="207.792" style="stroke: #000000; stroke-width: 0.8"/>
      </g>
     </g>
     <g id="text_16">
      <!-- 100 -->
      <g transform="translate(227.431965 222.390437)scale(0.1 -0.1)">
       <use xlink:href="#DejaVuSans-31"/>
       <use xlink:href="#DejaVuSans-30" x="63.623047"/>
       <use xlink:href="#DejaVuSans-30" x="127.246094"/>
      </g>
     </g>
    </g>
    <g id="xtick_15">
     <g id="line2d_18">
      <g>
       <use xlink:href="#m23ff0f7857" x="277.761462" y="207.792" style="stroke: #000000; stroke-width: 0.8"/>
      </g>
     </g>
     <g id="text_17">
      <!-- 125 -->
      <g transform="translate(268.217712 222.390437)scale(0.1 -0.1)">
       <use xlink:href="#DejaVuSans-31"/>
       <use xlink:href="#DejaVuSans-32" x="63.623047"/>
       <use xlink:href="#DejaVuSans-35" x="127.246094"/>
      </g>
     </g>
    </g>
    <g id="xtick_16">
     <g id="line2d_19">
      <g>
       <use xlink:href="#m23ff0f7857" x="318.547209" y="207.792" style="stroke: #000000; stroke-width: 0.8"/>
      </g>
     </g>
     <g id="text_18">
      <!-- 150 -->
      <g transform="translate(309.003459 222.390437)scale(0.1 -0.1)">
       <use xlink:href="#DejaVuSans-31"/>
       <use xlink:href="#DejaVuSans-35" x="63.623047"/>
       <use xlink:href="#DejaVuSans-30" x="127.246094"/>
      </g>
     </g>
    </g>
    <g id="xtick_17">
     <g id="line2d_20">
      <g>
       <use xlink:href="#m23ff0f7857" x="359.332956" y="207.792" style="stroke: #000000; stroke-width: 0.8"/>
      </g>
     </g>
     <g id="text_19">
      <!-- 175 -->
      <g transform="translate(349.789206 222.390437)scale(0.1 -0.1)">
       <use xlink:href="#DejaVuSans-31"/>
       <use xlink:href="#DejaVuSans-37" x="63.623047"/>
       <use xlink:href="#DejaVuSans-35" x="127.246094"/>
      </g>
     </g>
    </g>
    <g id="xtick_18">
     <g id="line2d_21">
      <g>
       <use xlink:href="#m23ff0f7857" x="400.118703" y="207.792" style="stroke: #000000; stroke-width: 0.8"/>
      </g>
     </g>
     <g id="text_20">
      <!-- 200 -->
      <g transform="translate(390.574953 222.390437)scale(0.1 -0.1)">
       <use xlink:href="#DejaVuSans-32"/>
       <use xlink:href="#DejaVuSans-30" x="63.623047"/>
       <use xlink:href="#DejaVuSans-30" x="127.246094"/>
      </g>
     </g>
    </g>
   </g>
   <g id="matplotlib.axis_4">
    <g id="ytick_3">
     <g id="line2d_22">
      <g>
       <use xlink:href="#m23f93571b1" x="57.6" y="198.32341" style="stroke: #000000; stroke-width: 0.8"/>
      </g>
     </g>
     <g id="text_21">
      <!-- 32000 -->
      <g transform="translate(18.7875 202.122629)scale(0.1 -0.1)">
       <use xlink:href="#DejaVuSans-33"/>
       <use xlink:href="#DejaVuSans-32" x="63.623047"/>
       <use xlink:href="#DejaVuSans-30" x="127.246094"/>
       <use xlink:href="#DejaVuSans-30" x="190.869141"/>
       <use xlink:href="#DejaVuSans-30" x="254.492188"/>
      </g>
     </g>
    </g>
    <g id="ytick_4">
     <g id="line2d_23">
      <g>
       <use xlink:href="#m23f93571b1" x="57.6" y="167.339803" style="stroke: #000000; stroke-width: 0.8"/>
      </g>
     </g>
     <g id="text_22">
      <!-- 33000 -->
      <g transform="translate(18.7875 171.139022)scale(0.1 -0.1)">
       <use xlink:href="#DejaVuSans-33"/>
       <use xlink:href="#DejaVuSans-33" x="63.623047"/>
       <use xlink:href="#DejaVuSans-30" x="127.246094"/>
       <use xlink:href="#DejaVuSans-30" x="190.869141"/>
       <use xlink:href="#DejaVuSans-30" x="254.492188"/>
      </g>
     </g>
    </g>
   </g>
   <g id="line2d_24">
    <path d="M 73.832727 164.117508 
L 75.464157 172.049311 
L 77.095587 168.08341 
L 78.727017 169.570623 
L 80.358447 167.587672 
L 81.989877 169.074885 
L 83.621307 167.091934 
L 85.252736 170.066361 
L 86.884166 171.057836 
L 88.515596 171.057836 
L 90.147026 170.066361 
L 91.778456 170.562098 
L 93.409886 170.066361 
L 96.672746 171.057836 
L 98.304175 171.057836 
L 99.935605 170.562098 
L 101.567035 173.040787 
L 103.198465 177.006689 
L 104.829895 174.032262 
L 108.092755 173.040787 
L 109.724185 170.562098 
L 111.355614 173.536525 
L 112.987044 177.998164 
L 114.618474 174.528 
L 116.249904 177.998164 
L 117.881334 178.493902 
L 119.512764 177.006689 
L 121.144194 177.006689 
L 122.775624 175.519475 
L 124.407053 179.485377 
L 126.038483 177.502426 
L 127.669913 177.006689 
L 129.301343 177.998164 
L 130.932773 178.493902 
L 132.564203 177.006689 
L 134.195633 180.476852 
L 135.827063 176.015213 
L 137.458492 179.485377 
L 139.089922 178.989639 
L 140.721352 180.97259 
L 142.352782 180.476852 
L 143.984212 184.938492 
L 145.615642 178.493902 
L 147.247072 184.442754 
L 148.878502 180.476852 
L 150.509931 179.485377 
L 152.141361 180.97259 
L 153.772791 181.468328 
L 155.404221 178.989639 
L 157.035651 184.938492 
L 158.667081 183.451279 
L 160.298511 184.938492 
L 161.929941 181.964066 
L 163.56137 186.921443 
L 165.1928 179.981115 
L 166.82423 185.929967 
L 168.45566 181.468328 
L 170.08709 187.912918 
L 171.71852 178.989639 
L 173.34995 186.425705 
L 174.98138 178.989639 
L 176.61281 191.383082 
L 178.244239 177.998164 
L 179.875669 192.374557 
L 181.507099 179.485377 
L 183.138529 190.887344 
L 184.769959 180.476852 
L 186.401389 191.383082 
L 188.032819 176.510951 
L 189.664249 191.87882 
L 191.295678 178.493902 
L 192.927108 192.374557 
L 194.558538 177.006689 
L 196.189968 197.331934 
L 197.821398 176.510951 
L 199.452828 192.870295 
L 201.084258 178.493902 
L 202.715688 192.870295 
L 204.347117 181.964066 
L 205.978547 196.340459 
L 207.609977 177.006689 
L 209.241407 199.810623 
L 210.872837 175.023738 
L 212.504267 198.32341 
L 214.135697 174.528 
L 215.767127 201.297836 
L 217.398556 171.553574 
L 219.029986 199.314885 
L 220.661416 171.553574 
L 222.292846 198.819148 
L 223.924276 174.032262 
L 225.555706 201.297836 
L 227.187136 172.545049 
L 228.818566 199.810623 
L 230.449995 173.040787 
L 232.081425 199.810623 
L 233.712855 169.570623 
L 235.344285 195.844721 
L 236.975715 171.057836 
L 238.607145 201.297836 
L 240.238575 166.100459 
L 241.870005 204.768 
L 243.501434 167.587672 
L 245.132864 203.280787 
L 246.764294 167.091934 
L 248.395724 203.280787 
L 250.027154 165.604721 
L 251.658584 199.810623 
L 253.290014 165.604721 
L 254.921444 201.297836 
L 256.552873 162.630295 
L 258.184303 204.768 
L 259.815733 160.151607 
L 261.447163 201.793574 
L 263.078593 159.655869 
L 264.710023 202.785049 
L 266.341453 160.647344 
L 267.972883 202.785049 
L 269.604312 157.672918 
L 271.235742 199.314885 
L 272.867172 159.160131 
L 274.498602 200.306361 
L 276.130032 153.707016 
L 277.761462 204.272262 
L 279.392892 159.160131 
L 281.024322 194.853246 
L 282.655751 157.17718 
L 284.287181 196.340459 
L 285.918611 155.19423 
L 287.550041 193.86177 
L 289.181471 150.73259 
L 290.812901 195.844721 
L 292.444331 149.741115 
L 294.075761 196.340459 
L 295.70719 153.211279 
L 297.33862 195.844721 
L 298.97005 150.236852 
L 300.60148 192.870295 
L 302.23291 151.724066 
L 303.86434 190.887344 
L 305.49577 147.758164 
L 307.1272 193.366033 
L 308.75863 151.724066 
L 310.390059 188.904393 
L 312.021489 149.741115 
L 313.652919 189.400131 
L 315.284349 149.741115 
L 316.915779 184.938492 
L 318.547209 147.262426 
L 320.178639 182.955541 
L 321.810069 144.288 
L 323.441498 178.989639 
L 325.072928 147.262426 
L 326.704358 180.476852 
L 328.335788 150.236852 
L 329.967218 181.468328 
L 331.598648 153.707016 
L 333.230078 179.981115 
L 334.861508 150.73259 
L 336.492937 177.006689 
L 338.124367 147.262426 
L 339.755797 177.998164 
L 341.387227 144.783738 
L 343.018657 172.545049 
L 344.650087 153.211279 
L 346.281517 176.510951 
L 347.912947 154.698492 
L 349.544376 175.023738 
L 351.175806 150.73259 
L 352.807236 174.032262 
L 354.438666 149.741115 
L 356.070096 170.066361 
L 357.701526 157.17718 
L 359.332956 172.545049 
L 360.964386 155.689967 
L 362.595815 168.579148 
L 364.227245 159.160131 
L 365.858675 172.545049 
L 367.490105 158.168656 
L 369.121535 169.570623 
L 370.752965 159.655869 
L 372.384395 172.545049 
L 374.015825 157.672918 
L 375.647254 168.08341 
L 377.278684 160.151607 
L 378.910114 168.08341 
L 380.541544 161.143082 
L 382.172974 168.08341 
L 383.804404 158.664393 
L 385.435834 165.604721 
L 387.067264 159.655869 
L 388.698693 166.596197 
L 390.330123 163.62177 
L 391.961553 166.100459 
L 393.592983 163.126033 
L 395.224413 166.596197 
L 396.855843 162.630295 
L 398.487273 166.100459 
L 398.487273 166.100459 
" clip-path="url(#p01a6e427d5)" style="fill: none; stroke: #1f77b4; stroke-width: 1.5; stroke-linecap: square"/>
   </g>
   <g id="patch_8">
    <path d="M 57.6 207.792 
L 57.6 141.264 
" style="fill: none; stroke: #000000; stroke-width: 0.8; stroke-linejoin: miter; stroke-linecap: square"/>
   </g>
   <g id="patch_9">
    <path d="M 414.72 207.792 
L 414.72 141.264 
" style="fill: none; stroke: #000000; stroke-width: 0.8; stroke-linejoin: miter; stroke-linecap: square"/>
   </g>
   <g id="patch_10">
    <path d="M 57.6 207.792 
L 414.72 207.792 
" style="fill: none; stroke: #000000; stroke-width: 0.8; stroke-linejoin: miter; stroke-linecap: square"/>
   </g>
   <g id="patch_11">
    <path d="M 57.6 141.264 
L 414.72 141.264 
" style="fill: none; stroke: #000000; stroke-width: 0.8; stroke-linejoin: miter; stroke-linecap: square"/>
   </g>
  </g>
  <g id="axes_3">
   <g id="patch_12">
    <path d="M 57.6 307.584 
L 414.72 307.584 
L 414.72 241.056 
L 57.6 241.056 
z
" style="fill: #ffffff"/>
   </g>
   <g id="matplotlib.axis_5">
    <g id="xtick_19">
     <g id="line2d_25">
      <g>
       <use xlink:href="#m23ff0f7857" x="106.298182" y="307.584" style="stroke: #000000; stroke-width: 0.8"/>
      </g>
     </g>
     <g id="text_23">
      <!-- −0.04 -->
      <g transform="translate(90.975526 322.182437)scale(0.1 -0.1)">
       <defs>
        <path id="DejaVuSans-2212" d="M 678 2272 
L 4684 2272 
L 4684 1741 
L 678 1741 
L 678 2272 
z
" transform="scale(0.015625)"/>
        <path id="DejaVuSans-2e" d="M 684 794 
L 1344 794 
L 1344 0 
L 684 0 
L 684 794 
z
" transform="scale(0.015625)"/>
        <path id="DejaVuSans-34" d="M 2419 4116 
L 825 1625 
L 2419 1625 
L 2419 4116 
z
M 2253 4666 
L 3047 4666 
L 3047 1625 
L 3713 1625 
L 3713 1100 
L 3047 1100 
L 3047 0 
L 2419 0 
L 2419 1100 
L 313 1100 
L 313 1709 
L 2253 4666 
z
" transform="scale(0.015625)"/>
       </defs>
       <use xlink:href="#DejaVuSans-2212"/>
       <use xlink:href="#DejaVuSans-30" x="83.789062"/>
       <use xlink:href="#DejaVuSans-2e" x="147.412109"/>
       <use xlink:href="#DejaVuSans-30" x="179.199219"/>
       <use xlink:href="#DejaVuSans-34" x="242.822266"/>
      </g>
     </g>
    </g>
    <g id="xtick_20">
     <g id="line2d_26">
      <g>
       <use xlink:href="#m23ff0f7857" x="171.229091" y="307.584" style="stroke: #000000; stroke-width: 0.8"/>
      </g>
     </g>
     <g id="text_24">
      <!-- −0.02 -->
      <g transform="translate(155.906435 322.182437)scale(0.1 -0.1)">
       <use xlink:href="#DejaVuSans-2212"/>
       <use xlink:href="#DejaVuSans-30" x="83.789062"/>
       <use xlink:href="#DejaVuSans-2e" x="147.412109"/>
       <use xlink:href="#DejaVuSans-30" x="179.199219"/>
       <use xlink:href="#DejaVuSans-32" x="242.822266"/>
      </g>
     </g>
    </g>
    <g id="xtick_21">
     <g id="line2d_27">
      <g>
       <use xlink:href="#m23ff0f7857" x="236.16" y="307.584" style="stroke: #000000; stroke-width: 0.8"/>
      </g>
     </g>
     <g id="text_25">
      <!-- 0.00 -->
      <g transform="translate(225.027187 322.182437)scale(0.1 -0.1)">
       <use xlink:href="#DejaVuSans-30"/>
       <use xlink:href="#DejaVuSans-2e" x="63.623047"/>
       <use xlink:href="#DejaVuSans-30" x="95.410156"/>
       <use xlink:href="#DejaVuSans-30" x="159.033203"/>
      </g>
     </g>
    </g>
    <g id="xtick_22">
     <g id="line2d_28">
      <g>
       <use xlink:href="#m23ff0f7857" x="301.090909" y="307.584" style="stroke: #000000; stroke-width: 0.8"/>
      </g>
     </g>
     <g id="text_26">
      <!-- 0.02 -->
      <g transform="translate(289.958097 322.182437)scale(0.1 -0.1)">
       <use xlink:href="#DejaVuSans-30"/>
       <use xlink:href="#DejaVuSans-2e" x="63.623047"/>
       <use xlink:href="#DejaVuSans-30" x="95.410156"/>
       <use xlink:href="#DejaVuSans-32" x="159.033203"/>
      </g>
     </g>
    </g>
    <g id="xtick_23">
     <g id="line2d_29">
      <g>
       <use xlink:href="#m23ff0f7857" x="366.021818" y="307.584" style="stroke: #000000; stroke-width: 0.8"/>
      </g>
     </g>
     <g id="text_27">
      <!-- 0.04 -->
      <g transform="translate(354.889006 322.182437)scale(0.1 -0.1)">
       <use xlink:href="#DejaVuSans-30"/>
       <use xlink:href="#DejaVuSans-2e" x="63.623047"/>
       <use xlink:href="#DejaVuSans-30" x="95.410156"/>
       <use xlink:href="#DejaVuSans-34" x="159.033203"/>
      </g>
     </g>
    </g>
   </g>
   <g id="matplotlib.axis_6">
    <g id="ytick_5">
     <g id="line2d_30">
      <g>
       <use xlink:href="#m23f93571b1" x="57.6" y="304.56" style="stroke: #000000; stroke-width: 0.8"/>
      </g>
     </g>
     <g id="text_28">
      <!-- −0.05 -->
      <g transform="translate(19.954687 308.359219)scale(0.1 -0.1)">
       <use xlink:href="#DejaVuSans-2212"/>
       <use xlink:href="#DejaVuSans-30" x="83.789062"/>
       <use xlink:href="#DejaVuSans-2e" x="147.412109"/>
       <use xlink:href="#DejaVuSans-30" x="179.199219"/>
       <use xlink:href="#DejaVuSans-35" x="242.822266"/>
      </g>
     </g>
    </g>
    <g id="ytick_6">
     <g id="line2d_31">
      <g>
       <use xlink:href="#m23f93571b1" x="57.6" y="274.32" style="stroke: #000000; stroke-width: 0.8"/>
      </g>
     </g>
     <g id="text_29">
      <!-- 0.00 -->
      <g transform="translate(28.334375 278.119219)scale(0.1 -0.1)">
       <use xlink:href="#DejaVuSans-30"/>
       <use xlink:href="#DejaVuSans-2e" x="63.623047"/>
       <use xlink:href="#DejaVuSans-30" x="95.410156"/>
       <use xlink:href="#DejaVuSans-30" x="159.033203"/>
      </g>
     </g>
    </g>
    <g id="ytick_7">
     <g id="line2d_32">
      <g>
       <use xlink:href="#m23f93571b1" x="57.6" y="244.08" style="stroke: #000000; stroke-width: 0.8"/>
      </g>
     </g>
     <g id="text_30">
      <!-- 0.05 -->
      <g transform="translate(28.334375 247.879219)scale(0.1 -0.1)">
       <use xlink:href="#DejaVuSans-30"/>
       <use xlink:href="#DejaVuSans-2e" x="63.623047"/>
       <use xlink:href="#DejaVuSans-30" x="95.410156"/>
       <use xlink:href="#DejaVuSans-35" x="159.033203"/>
      </g>
     </g>
    </g>
   </g>
   <g id="line2d_33"/>
   <g id="patch_13">
    <path d="M 57.6 307.584 
L 57.6 241.056 
" style="fill: none; stroke: #000000; stroke-width: 0.8; stroke-linejoin: miter; stroke-linecap: square"/>
   </g>
   <g id="patch_14">
    <path d="M 414.72 307.584 
L 414.72 241.056 
" style="fill: none; stroke: #000000; stroke-width: 0.8; stroke-linejoin: miter; stroke-linecap: square"/>
   </g>
   <g id="patch_15">
    <path d="M 57.6 307.584 
L 414.72 307.584 
" style="fill: none; stroke: #000000; stroke-width: 0.8; stroke-linejoin: miter; stroke-linecap: square"/>
   </g>
   <g id="patch_16">
    <path d="M 57.6 241.056 
L 414.72 241.056 
" style="fill: none; stroke: #000000; stroke-width: 0.8; stroke-linejoin: miter; stroke-linecap: square"/>
   </g>
  </g>
 </g>
 <defs>
  <clipPath id="pcb41781f50">
   <rect x="57.6" y="41.472" width="357.12" height="66.528"/>
  </clipPath>
  <clipPath id="p01a6e427d5">
   <rect x="57.6" y="141.264" width="357.12" height="66.528"/>
  </clipPath>
 </defs>
</svg>
